<?xml version="1.0" encoding="UTF-8"?>
<svg width="15px" height="13px" viewBox="0 0 15 13" version="1.1" xmlns="http://www.w3.org/2000/svg" xmlns:xlink="http://www.w3.org/1999/xlink">
    <!-- Generator: Sketch 52.2 (67145) - http://www.bohemiancoding.com/sketch -->
    <title>icon4</title>
    <desc>Created with Sketch.</desc>
    <g id="Page-1" stroke="none" stroke-width="1" fill="none" fill-rule="evenodd">
        <g id="我的书架" transform="translate(-463.000000, -879.000000)" fill-rule="nonzero">
            <g id="个人中心" transform="translate(365.000000, 400.000000)">
                <g id="钱包" transform="translate(98.000000, 475.000000)">
                    <g id="icon4" transform="translate(0.000000, 4.000000)">
                        <path d="M14.9999913,0 L9.96986367,2.30839824e-16 C8.94709895,2.30839824e-16 8.04150858,0.501936774 7.50083263,1.26377608 C6.95848276,0.500312383 6.0545663,0 5.03012766,0 L0,0 C0,0 2.11033014e-12,0.233912283 2.11033014e-12,0.523053855 L2.11033014e-12,11.607897 C2.11033014e-12,11.8970386 6.82121026e-12,12.1309509 4.22563677e-12,12.1309509 L5.03012766,12.1309509 C6.17006674,12.1309509 7.13591821,12.8700487 7.15600524,12.8846682 C7.25476648,12.962639 7.37361476,13 7.49413695,13 L7.5075283,13 C7.6280505,13 7.74689877,12.9610146 7.84398609,12.8846682 C7.85402961,12.8765463 8.82992459,12.1309509 9.96818975,12.1309509 L14.4626632,12.1309509 C14.7589469,12.1309509 14.9999913,12.1309509 14.9999913,12.1309509 L14.9999913,0.523053855 C15.0016653,0.233912283 15.0016653,0 14.9999913,0 Z M5.03012766,11.0832188 L1.07465623,11.0832188 L1.07465623,1.04610771 L5.03180158,1.04610771 C6.09474037,1.04610771 6.95680884,1.88754217 6.95680884,2.92227915 L6.95680884,3.98300637 L6.96852627,11.5542921 C6.46802439,11.3155067 5.78841313,11.0832188 5.03012766,11.0832188 Z M13.927009,11.0832188 L9.96986367,11.0832188 C9.21827388,11.0832188 8.54201047,11.3106335 8.0431825,11.5477946 L8.03146506,3.98138198 L8.03146506,3.03923529 C8.03983466,3.0018743 8.04485642,2.96288892 8.04485642,2.92227915 C8.04485642,1.88754217 8.9085988,1.04610771 9.97153759,1.04610771 L13.927009,1.04610771 L13.927009,11.0832188 Z" id="形状" fill="#999999"></path>
                        <rect id="矩形" stroke="#979797" fill="#D8D8D8" x="2.5" y="3.5" width="3" height="1"></rect>
                        <rect id="矩形-copy" stroke="#979797" fill="#D8D8D8" x="2.5" y="5.5" width="3" height="1"></rect>
                        <rect id="矩形-copy-2" stroke="#979797" fill="#D8D8D8" x="2.5" y="7.5" width="3" height="1"></rect>
                        <rect id="矩形-copy-3" stroke="#979797" fill="#D8D8D8" x="9.5" y="3.5" width="3" height="1"></rect>
                        <rect id="矩形-copy-4" stroke="#979797" fill="#D8D8D8" x="9.5" y="5.5" width="3" height="1"></rect>
                        <rect id="矩形-copy-5" stroke="#979797" fill="#D8D8D8" x="9.5" y="7.5" width="1" height="1"></rect>
                    </g>
                </g>
            </g>
        </g>
    </g>
</svg>