<?xml version="1.0" encoding="UTF-8"?>
<svg width="16px" height="16px" viewBox="0 0 16 16" version="1.1" xmlns="http://www.w3.org/2000/svg" xmlns:xlink="http://www.w3.org/1999/xlink">
    <!-- Generator: Sketch 52.2 (67145) - http://www.bohemiancoding.com/sketch -->
    <title>icon1</title>
    <desc>Created with Sketch.</desc>
    <g id="Page-1" stroke="none" stroke-width="1" fill="none" fill-rule="evenodd">
        <g id="章节阅读页-目录" transform="translate(-1137.000000, -420.000000)" fill="#333333">
            <g id="目录" transform="translate(346.000000, 400.000000)">
                <g id="icon1" transform="translate(791.000000, 20.000000)">
                    <g id="Group-11" transform="translate(8.000000, 8.000000) rotate(-315.000000) translate(-8.000000, -8.000000) translate(-2.000000, 7.000000)">
                        <path d="M1,0 L8,0 L8,2 L1,2 C0.44771525,2 6.76353751e-17,1.55228475 0,1 L0,1 C-6.76353751e-17,0.44771525 0.44771525,1.01453063e-16 1,0 Z" id="Rectangle" transform="translate(4.000000, 1.000000) rotate(-360.000000) translate(-4.000000, -1.000000) "></path>
                        <path d="M12,0 L19,0 C19.5522847,-1.01453063e-16 20,0.44771525 20,1 L20,1 C20,1.55228475 19.5522847,2 19,2 L12,2 L12,0 Z" id="Rectangle" transform="translate(16.000000, 1.000000) rotate(-360.000000) translate(-16.000000, -1.000000) "></path>
                    </g>
                    <rect id="Rectangle" transform="translate(8.000000, 8.000000) rotate(-45.000000) translate(-8.000000, -8.000000) " x="-2" y="7" width="20" height="2" rx="1"></rect>
                </g>
            </g>
        </g>
    </g>
</svg>