<?xml version="1.0" encoding="UTF-8"?>
<svg width="17px" height="10px" viewBox="0 0 17 10" version="1.1" xmlns="http://www.w3.org/2000/svg" xmlns:xlink="http://www.w3.org/1999/xlink">
    <!-- Generator: Sketch 52.2 (67145) - http://www.bohemiancoding.com/sketch -->
    <title>icon2</title>
    <desc>Created with Sketch.</desc>
    <g id="Page-1" stroke="none" stroke-width="1" fill="none" fill-rule="evenodd">
        <g id="章节阅读页-目录" transform="translate(-1080.000000, -490.000000)" fill="#B7B7B7">
            <g id="目录" transform="translate(346.000000, 400.000000)">
                <g id="卷轴1" transform="translate(161.000000, 76.000000)">
                    <g id="icon2" transform="translate(573.000000, 14.000000)">
                        <path d="M8.47438167,9.98688517 C8.16837735,10.0393849 7.8793736,9.78913661 7.64136957,9.57213747 L0.280262235,1.73742739 C-0.0934207451,1.33439973 -0.0934207451,0.700209388 0.280262337,0.297181832 C0.642846671,-0.0894150495 1.24123056,-0.100242089 1.6167901,0.272999366 C1.62475783,0.280917932 1.63258977,0.288979991 1.64028221,0.297181943 L8.49138234,7.7521407 L15.3594761,0.297181943 C15.7220602,-0.0894147777 16.3204441,-0.100241817 16.6960037,0.272999331 C16.7039714,0.280917897 16.7118033,0.288979955 16.7194958,0.297181907 C17.0935014,0.692680061 17.0935014,1.34192613 16.7194958,1.73742736 L9.34139485,9.57213743 C9.10339089,9.82413607 8.780386,10.0586344 8.47438167,9.98688517 Z" id="路径" transform="translate(8.500000, 5.000000) scale(1, -1) translate(-8.500000, -5.000000) "></path>
                    </g>
                </g>
            </g>
        </g>
    </g>
</svg>