<?xml version="1.0" encoding="UTF-8"?>
<svg width="20px" height="20px" viewBox="0 0 20 20" version="1.1" xmlns="http://www.w3.org/2000/svg" xmlns:xlink="http://www.w3.org/1999/xlink">
    <!-- Generator: Sketch 52.2 (67145) - http://www.bohemiancoding.com/sketch -->
    <title>赏</title>
    <desc>Created with Sketch.</desc>
    <g id="Page-1" stroke="none" stroke-width="1" fill="none" fill-rule="evenodd">
        <g id="章节阅读页-设置" transform="translate(-1509.000000, -1060.000000)">
            <g id="打赏" transform="translate(1478.000000, 1042.000000)">
                <g id="赏" transform="translate(32.000000, 19.000000)">
                    <g id="Group-13" stroke="#0A1217">
                        <path d="M17.3140844,5.54770596 C15.9600024,2.29039936 12.7474769,0 9,0 C4.02943725,0 -7.22977234e-13,4.02943725 -7.22977234e-13,9 C-7.22977234e-13,13.9705627 4.02943725,18 9,18 C13.7419103,18 17.6272896,14.3327548 17.9747203,9.67968209" id="Oval"></path>
                        <path d="M18.1668181,8.22792842 C17.9996663,7.82583709 17.8041953,7.43847963 17.5828945,7.06834559" id="Oval" transform="translate(17.874856, 7.648137) rotate(18.000000) translate(-17.874856, -7.648137) "></path>
                    </g>
                    <path d="M6.97458401,7.46206422 L11.022584,7.456 L11.024,9.83899117 L6.976,9.83899117 L6.97458401,7.46206422 Z M10.022584,9.032 L10.022584,8.416 L7.96213035,8.416 L7.96213035,9.032 L10.022584,9.032 Z M8.50040775,4.95403336 L9.50040775,4.95403336 L9.50040775,5.91403336 L10.264,5.91403336 L10.6686366,5.21163416 L11.6829067,5.21163416 L11.2669067,5.91563416 L12.352,5.91403336 L12.328,8.008 L11.329422,8.008 L11.329422,6.92 L6.66961191,6.92 L6.66961191,8.04 L5.664,8.04 L5.688,5.91403336 L6.77389526,5.91403336 L6.32589526,5.22603336 L7.30377197,5.22603336 L7.776,5.91403336 L8.50040775,5.91403336 L8.50040775,4.95403336 Z M11.488,10.1430467 L11.488,12.2710467 L10.5267797,12.2710467 L10.5267797,11.1630192 L7.54714836,11.1630192 L7.54714836,12.3670467 L6.52,12.3670467 L6.52,10.1430467 L11.488,10.1430467 Z M10.588,12.6550467 L12.3957824,14.0034308 L11.022584,14.0034308 L9.176,12.6550467 L10.588,12.6550467 Z M8.776,11.4750192 L10.1277503,11.4750192 L7.17907061,14.0034308 L5.83148487,13.9990752 L8.776,11.4750192 Z" fill="#0A1217"></path>
                </g>
            </g>
        </g>
    </g>
</svg>