<?xml version="1.0" encoding="UTF-8"?>
<svg width="20px" height="20px" viewBox="0 0 20 20" version="1.1" xmlns="http://www.w3.org/2000/svg" xmlns:xlink="http://www.w3.org/1999/xlink">
    <!-- Generator: Sketch 52.2 (67145) - http://www.bohemiancoding.com/sketch -->
    <title>icon8</title>
    <desc>Created with Sketch.</desc>
    <g id="Page-1" stroke="none" stroke-width="1" fill="none" fill-rule="evenodd">
        <g id="章节阅读页（背景1）" transform="translate(-1504.000000, -1146.000000)" stroke="#D8D8D8">
            <g id="返回头部‘" transform="translate(1473.000000, 1128.000000)">
                <g id="icon8" transform="translate(32.000000, 19.000000)">
                    <g id="Group-13">
                        <g id="返回顶部">
                            <path d="M17.3140844,5.54770596 C15.9600024,2.29039936 12.7474769,0 9,0 C4.02943725,0 -7.22977234e-13,4.02943725 -7.22977234e-13,9 C-7.22977234e-13,13.9705627 4.02943725,18 9,18 C13.7419103,18 17.6272896,14.3327548 17.9747203,9.67968209" id="Oval"></path>
                            <path d="M18.1668181,8.22792842 C17.9996663,7.82583709 17.8041953,7.43847963 17.5828945,7.06834559" id="Oval" transform="translate(17.874856, 7.648137) rotate(18.000000) translate(-17.874856, -7.648137) "></path>
                            <g id="Group-14" transform="translate(3.000000, 6.000000)">
                                <path d="M0,0.5 L11.5,0.5" id="Path-7"></path>
                                <path d="M1.72674623,6.13471953 L9.77325377,6.13471953 L5.75,3.59151969 L1.72674623,6.13471953 Z" id="Path-7"></path>
                            </g>
                        </g>
                    </g>
                </g>
            </g>
        </g>
    </g>
</svg>