<?xml version="1.0" encoding="UTF-8"?>
<svg width="18px" height="18px" viewBox="0 0 18 18" version="1.1" xmlns="http://www.w3.org/2000/svg" xmlns:xlink="http://www.w3.org/1999/xlink">
    <!-- Generator: Sketch 52.2 (67145) - http://www.bohemiancoding.com/sketch -->
    <title>月票</title>
    <desc>Created with Sketch.</desc>
    <g id="Page-1" stroke="none" stroke-width="1" fill="none" fill-rule="evenodd">
        <g id="章节阅读页-设置" transform="translate(-1510.000000, -975.000000)">
            <g id="月票" transform="translate(1478.000000, 956.000000)">
                <g transform="translate(33.000000, 19.000000)">
                    <path d="M4.87531491,1 L8.06891524,0.962738456" id="Path-6" stroke="#0A1217"></path>
                    <path d="M6.504,8.73733521 L6.504,9.712 L9.92,9.712 L9.92,8.73733521 L6.504,8.73733521 Z M9.92,7.736 L9.92,6.336 L6.504,6.336 L6.504,7.736 L9.92,7.736 Z M6.472,10.7373352 L6.472,12.728 L5.4904923,12.728 C5.47982563,11.4373333 5.47982563,10.424 5.4904923,9.688 L5.4904923,5.33392989 L10.9373505,5.33392989 L10.9373505,12.7309545 L8.792,12.728 L8.792,11.7309545 L9.92,11.7309545 L9.92,10.7373352 L6.472,10.7373352 Z" id="月" fill="#0A1217"></path>
                    <path d="M9.97348293,1 L15,1 C15.5522847,1 16,1.44771525 16,2 L16,7 C14.8954305,7 14,7.8954305 14,9 C14,10.1045695 14.8954305,11 16,11 L16,16 C16,16.5522847 15.5522847,17 15,17 L1,17 C0.44771525,17 0,16.5522847 0,16 L0,11 C1.1045695,11 2,10.1045695 2,9 C2,7.8954305 1.1045695,7 0,7 L0,2 C0,1.44771525 0.44771525,1 1,1 L3.02457801,1" id="Path" stroke="#0A1217"></path>
                </g>
            </g>
        </g>
    </g>
</svg>