<?xml version="1.0" encoding="UTF-8"?>
<svg width="18px" height="18px" viewBox="0 0 18 18" version="1.1" xmlns="http://www.w3.org/2000/svg" xmlns:xlink="http://www.w3.org/1999/xlink">
    <!-- Generator: Sketch 52.2 (67145) - http://www.bohemiancoding.com/sketch -->
    <title>icon5</title>
    <desc>Created with Sketch.</desc>
    <g id="Page-1" stroke="none" stroke-width="1" fill="none" fill-rule="evenodd">
        <g id="章节阅读页（背景1）" transform="translate(-1505.000000, -889.000000)">
            <g id="推荐票" transform="translate(1473.000000, 870.000000)">
                <g id="Group-9" transform="translate(23.000000, 19.000000)">
                    <g id="icon5" transform="translate(10.000000, 0.000000)">
                        <path d="M4.87531491,1 L8.06891524,0.962738456" id="Path-6" stroke="#D8D8D8"></path>
                        <g id="Group-15" transform="translate(0.000000, 1.000000)" stroke="#D8D8D8">
                            <path d="M9.97348293,0 L15,0 C15.5522847,0 16,0.44771525 16,1 L16,6 C14.8954305,6 14,6.8954305 14,8 C14,9.1045695 14.8954305,10 16,10 L16,15 C16,15.5522847 15.5522847,16 15,16 L1,16 C0.44771525,16 0,15.5522847 0,15 L0,10 C1.1045695,10 2,9.1045695 2,8 C2,6.8954305 1.1045695,6 0,6 L0,1 C0,0.44771525 0.44771525,0 1,0 L3.02457801,0" id="Path"></path>
                        </g>
                        <path d="M4.536,5.5821228 L5.94818115,5.5821228 L5.94818115,5.472 L6.944,5.472 L6.944,5.5821228 L9.056,5.5821228 L9.056,5.472 L10.0532394,5.472 L10.0532394,5.5821228 L11.464,5.5821228 L11.464,6.576 L10.0532394,6.576 L10.0532394,7.16 L9.056,7.16 L9.056,6.576 L6.944,6.576 L6.944,7.152 L5.94818115,7.152 L5.94818115,6.576 L4.536,6.576 L4.536,5.5821228 Z M4.64,7.696 L7,7.696 L7.264,7.088 L8.25666809,7.09092712 L8,7.696 L11.424,7.696 L11.4207223,8.70676784 L7.536,8.70676784 L6.4,10.332303 L6.4,12.816 L5.40640259,12.816 L5.40640259,11.5176392 L4.92649076,12.1219832 L4.23834675,11.5651709 L6.504,8.70676784 L4.63672229,8.70676784 L4.64,7.696 Z M9.53585309,10 L7.536,10 L7.536,9 L10.984,9 L10.984,10 L10.4952931,10 L10.0081192,10.512 L11.504,10.512 L11.504,11.5176392 L10.0081192,11.5176392 L10,12.784 L9.104,12.784 L8.168,12.784 L8.168,11.9653616 L9,11.9653616 L9,11.5176392 L6.96,11.5176392 L6.96,10.512 L9,10.512 L9.53585309,10 Z" id="荐" fill="#D8D8D8"></path>
                    </g>
                </g>
            </g>
        </g>
    </g>
</svg>