<?xml version="1.0" encoding="UTF-8"?>
<svg width="16px" height="18px" viewBox="0 0 16 18" version="1.1" xmlns="http://www.w3.org/2000/svg" xmlns:xlink="http://www.w3.org/1999/xlink">
    <!-- Generator: Sketch 52.2 (67145) - http://www.bohemiancoding.com/sketch -->
    <title>icon2</title>
    <desc>Created with Sketch.</desc>
    <g id="Page-1" stroke="none" stroke-width="1" fill="none" fill-rule="evenodd">
        <g id="章节阅读页（背景1）" transform="translate(-398.000000, -507.000000)" stroke="#D8D8D8">
            <g id="设置" transform="translate(365.000000, 486.000000)">
                <g id="Group-6" transform="translate(29.000000, 22.000000)">
                    <g id="icon2" transform="translate(4.000000, 0.000000)">
                        <path d="M1.56786683,12.7577116 C1.21017514,12.2749329 0.905544716,11.7504738 0.662595431,11.192954 L2.12123939,9.20040932 C1.96089844,8.41664135 1.95604742,7.59924628 2.11999418,6.7978897 L0.662595431,4.80704598 C0.905544716,4.24952621 1.21017514,3.72506705 1.56786683,3.24228838 L4.01893903,3.50882074 C4.63096081,2.96616038 5.34127121,2.56166396 6.10020466,2.30863931 L7.09586803,0.0505253728 C7.39263487,0.0171448377 7.69431524,0 8,0 C8.30568476,0 8.60736513,0.0171448377 8.90413197,0.0505253728 L9.89918877,2.30726365 C10.2748698,2.43303463 10.6436026,2.59808145 11,2.80384758 C11.3563974,3.0096137 11.6836985,3.24642225 11.9804599,3.5088861 L14.4321332,3.24228838 C14.7898249,3.72506705 15.0944553,4.24952621 15.3374046,4.80704598 L13.8787606,6.79959068 C14.0391016,7.58335865 14.0439526,8.40075372 13.8800058,9.2021103 L15.3374046,11.192954 C15.0944553,11.7504738 14.7898249,12.2749329 14.4321332,12.7577116 L11.981061,12.4911793 C11.3690392,13.0338396 10.6587288,13.438336 9.89979534,13.6913607 L8.90413197,15.9494746 C8.60736513,15.9828552 8.30568476,16 8,16 C7.69431524,16 7.39263487,15.9828552 7.09586803,15.9494746 L6.10081123,13.6927364 C5.72513017,13.5669654 5.35639738,13.4019185 5,13.1961524 C4.64360262,12.9903863 4.31630149,12.7535777 4.01954009,12.4911139 L1.56786683,12.7577116 Z" id="Combined-Shape"></path>
                        <circle id="Oval" cx="8" cy="8" r="3"></circle>
                    </g>
                </g>
            </g>
        </g>
    </g>
</svg>