<?xml version="1.0" encoding="UTF-8"?>
<svg width="18px" height="16px" viewBox="0 0 18 16" version="1.1" xmlns="http://www.w3.org/2000/svg" xmlns:xlink="http://www.w3.org/1999/xlink">
    <!-- Generator: Sketch 52.2 (67145) - http://www.bohemiancoding.com/sketch -->
    <title>书架icon</title>
    <desc>Created with Sketch.</desc>
    <g id="Page-1" stroke="none" stroke-width="1" fill="none" fill-rule="evenodd">
        <g id="章节阅读页-设置" transform="translate(-392.000000, -594.000000)">
            <g id="书架" transform="translate(360.000000, 572.000000)">
                <g id="Group-10" transform="translate(17.000000, 22.000000)">
                    <g id="书架icon" transform="translate(16.000000, 0.000000)">
                        <path d="M0,15.5 L16,15.5" id="Path-4" stroke="#000000" stroke-linecap="round"></path>
                        <g id="Group-24" transform="translate(11.000000, 0.000000)" fill="#000000">
                            <rect id="Rectangle" x="1.5" y="0.5" width="1" height="4" rx="0.5"></rect>
                            <path d="M2,0.5 L2,0.5 C2.27614237,0.5 2.5,0.723857625 2.5,1 L2.5,4 C2.5,4.27614237 2.27614237,4.5 2,4.5 L2,4.5 C1.72385763,4.5 1.5,4.27614237 1.5,4 L1.5,1 C1.5,0.723857625 1.72385763,0.5 2,0.5 Z" id="Rectangle" transform="translate(2.000000, 2.500000) rotate(-270.000000) translate(-2.000000, -2.500000) "></path>
                        </g>
                        <rect id="Rectangle" stroke="#000000" x="1.5" y="0.5" width="3" height="13"></rect>
                        <path d="M7,3.5 C6.72385763,3.5 6.5,3.72385763 6.5,4 L6.5,13 C6.5,13.2761424 6.72385763,13.5 7,13.5 L9,13.5 C9.27614237,13.5 9.5,13.2761424 9.5,13 L9.5,4 C9.5,3.72385763 9.27614237,3.5 9,3.5 L7,3.5 Z" id="Rectangle" stroke="#000000"></path>
                        <path d="M12,6.5 C11.7238576,6.5 11.5,6.72385763 11.5,7 L11.5,13 C11.5,13.2761424 11.7238576,13.5 12,13.5 L14,13.5 C14.2761424,13.5 14.5,13.2761424 14.5,13 L14.5,7 C14.5,6.72385763 14.2761424,6.5 14,6.5 L12,6.5 Z" id="Rectangle" stroke="#000000"></path>
                    </g>
                </g>
            </g>
        </g>
    </g>
</svg>