<?xml version="1.0" encoding="UTF-8"?>
<svg width="38px" height="36px" viewBox="0 0 38 36" version="1.1" xmlns="http://www.w3.org/2000/svg" xmlns:xlink="http://www.w3.org/1999/xlink">
    <!-- Generator: Sketch 52.2 (67145) - http://www.bohemiancoding.com/sketch -->
    <title>icon3</title>
    <desc>Created with Sketch.</desc>
    <g id="Page-1" stroke="none" stroke-width="1" fill="none" fill-rule="evenodd">
        <g id="书城" transform="translate(-1281.000000, -863.000000)">
            <g id="男频推荐" transform="translate(365.000000, 780.000000)">
                <g id="推荐榜" transform="translate(906.000000, 66.000000)">
                    <g id="icon3" transform="translate(10.000000, 17.000000)">
                        <g id="Group-39" transform="translate(0.190968, 0.128365)" fill="#FFC500">
                            <path d="M11.2286365,20.8224998 C5.76630078,15.4129317 2.91460473,12.4942057 2.67354839,12.066322 C2.43249204,11.6384382 1.64519117,10.247816 0.311645768,7.89445534 C-0.00371048792,5.20050637 -0.0559993854,3.59594227 0.154779075,3.08076306 C0.470946767,2.30799424 1.60358076,-0.0789918576 2.25198257,0.0552358303 C2.90038437,0.189463518 5.22738637,0.427128667 5.78455038,1.78603715 C6.34171438,3.14494562 6.09867325,5.07042254 6.22019382,5.26297023 C6.34171438,5.45551792 9.52568954,7.31681227 9.67768762,7.83027278 C9.8296857,8.34373329 7.70064148,8.34373329 6.96041765,8.79301123 C6.22019382,9.24228918 4.82309679,7.13994332 5.07246712,5.50745251 C5.32183745,3.8749617 5.27782519,3.33804916 4.09854989,3.08076306 C2.91927459,2.82347696 1.79735154,2.82957124 1.79735154,4.75227894 C1.79735154,6.67498663 4.80040906,14.4369321 8.78118133,16.8548573 C8.82587519,16.8743958 9.28878286,16.4449659 9.46200809,16.5618284 C11.0431387,19.908484 12.2779161,20.1259758 11.8600918,20.4742378 C11.5815423,20.7064125 11.3710572,20.8224998 11.2286365,20.8224998 Z" id="Path-85"></path>
                            <path d="M36.2809497,20.8368869 C30.8186139,15.4273187 27.9669179,12.5085928 27.7258615,12.080709 C27.4848052,11.6528253 26.6975043,10.2622031 25.3639589,7.90884239 C25.0486027,5.21489342 24.9963138,3.61032933 25.2070922,3.09515011 C25.5232599,2.32238129 26.6558939,-0.0646048037 27.3042957,0.0696228841 C27.9526975,0.203850572 30.2796995,0.441515721 30.8368635,1.8004242 C31.3940275,3.15933268 31.1509864,5.08480959 31.272507,5.27735728 C31.3940275,5.46990497 34.5780027,7.33119932 34.7300008,7.84465983 C34.8819989,8.35812034 32.7529546,8.35812034 32.0127308,8.80739829 C31.272507,9.25667623 29.8754099,7.15433037 30.1247803,5.52183956 C30.3741506,3.88934875 30.3301383,3.35243621 29.150863,3.09515011 C27.9715877,2.83786402 26.8496647,2.8439583 26.8496647,4.76666599 C26.8496647,6.68937368 29.8527222,14.4513192 33.8334945,16.8692443 C33.8781883,16.8887829 34.341096,16.459353 34.5143212,16.5762155 C36.0954518,19.9228711 37.3302293,20.1403629 36.912405,20.4886249 C36.6338554,20.7207996 36.4233703,20.8368869 36.2809497,20.8368869 Z" id="Path-85" transform="translate(31.037461, 10.450535) scale(-1, 1) translate(-31.037461, -10.450535) "></path>
                            <path d="M8.49922918,3.08076306 C7.98121462,3.36103917 7.72220735,3.60137407 7.72220735,3.80176775 C7.72220735,4.00216144 7.85171098,4.32624569 8.11071826,4.7740205 L9.3552088,7.63772508 L8.69565779,9.65382564 L9.88618178,10.2050276 L10.5221903,10.2050276 L10.9327949,10.6543056 C11.4001832,12.9800849 11.6338773,14.4360296 11.6338773,15.0221399 C11.6338773,15.6082501 11.7366446,17.3767873 11.9421792,20.3277515 C11.3874918,20.3762979 11.1101481,20.541214 11.1101481,20.8224998 C11.1101481,21.2444286 11.1101481,22.0558221 11.1101481,22.0558221 C11.1101481,22.0558221 11.5878789,22.1276646 12.5433405,22.2713496 C12.7562287,22.8275985 13.0932682,23.2554823 13.5544589,23.5550009 C14.246245,24.0042788 15.8594466,24.466673 16.2862291,24.466673 C16.7130116,24.466673 16.4614092,25.4804778 16.8179265,25.4804778 C17.1744438,25.4804778 17.373287,25.8724692 18.1486186,25.8724692 C18.2424034,25.8724692 18.198202,27.9920645 18.3129811,27.9961104 C18.3928168,27.9989245 18.3341742,28.7970591 17.7911793,29.404922 C17.3042786,29.9499894 16.3240224,30.3121911 16.4263331,30.3057312 C16.4983234,30.3011856 14.8643519,31.6291871 15.6395597,31.8987342 C15.7209647,31.9270395 15.0460822,32.1714767 14.809408,32.5405598 C14.6726104,32.7538897 15.1269988,33.0292466 14.809408,33.2759187 C14.5744328,33.4584235 13.7894964,33.4946768 13.2149304,33.8217254 C12.8705843,34.0177305 12.3435666,34.442986 11.6338773,35.0974918 C16.191878,35.1946501 18.6969014,35.2408954 19.1489474,35.2362275 C19.6761187,35.2307838 22.3183805,35.1666013 27.0757329,35.0436798 C26.8334559,34.4464408 26.5402633,34.045924 26.1961551,33.8421296 C25.5985155,33.4881838 23.9216133,33.11346 23.699311,32.9364311 C23.299923,32.6183813 23.5390103,32.1573449 23.3617204,32.0212474 C22.7892554,31.5817916 22.6954706,31.7687084 22.7534841,31.7224373 C23.1716281,31.3889293 22.6647075,30.103878 21.1368623,29.3783764 C20.2773171,28.9702189 20.0540207,27.574263 20.1226771,27.5026061 C20.3969345,27.2163628 19.9983138,26.2415957 20.1226771,25.8724692 C20.2093258,25.6152845 20.8428037,25.90111 20.9038106,25.8724692 C21.1436619,25.7598667 21.557808,25.2912679 22.1462487,24.466673 C23.1946728,24.5028974 23.8396154,24.3487661 24.0810765,24.0042788 C24.3225377,23.6597916 24.7692407,23.0821485 25.4211857,22.2713496 C25.8922763,22.4974401 26.2327767,22.4255976 26.4426869,22.0558221 C26.6525971,21.6860466 26.7077709,21.1100231 26.6082085,20.3277515 L25.4211857,19.3296921 L26.1961551,10.2692102 C27.3723122,10.1173764 28.0153231,9.53576693 28.1251879,8.52438168 C28.2350527,7.51299643 27.9665077,7.1988886 27.3195529,7.5820582 C28.0342778,5.65090417 28.5307621,4.5997504 28.8090057,4.4285969 C29.2263713,4.17186664 29.4129,3.28636258 28.5268584,3.08076306 C27.6408169,2.87516354 23.7261287,2.95934428 22.4316557,3.14494562 C21.5686737,3.26867985 16.9245316,3.24728566 8.49922918,3.08076306 Z" id="Path-86"></path>
                        </g>
                        <g id="Group-40">
                            <path d="M11.9821095,20.8963196 L11.7595181,20.602603 C11.9645884,20.5730002 12.0016869,20.4931608 11.8708138,20.3630849 C11.6745042,20.1679709 11.1303738,19.8715285 10.8205037,19.2615963 C10.5106336,18.651664 9.82161781,16.7959817 9.61798036,16.9441968 C9.4143429,17.0924119 9.49992749,17.5362186 9.28786125,17.5362186 C9.075795,17.5362186 5.70564036,14.120164 5.26324776,13.2216081 C4.82085516,12.3230522 4.49755077,11.9853384 4.24474903,11.4886789 C3.99194728,10.9920194 3.12027703,8.94912002 2.83458729,8.71060922 C2.54889754,8.47209841 1.22550928,5.76604719 1.81517246,4.26281469 C2.40483564,2.75958219 4.0733498,2.18753296 5.13459635,3.20912819 C6.1958429,4.23072341 4.64931436,7.63772508 6.47055111,8.47209841 C7.24485539,8.82683474 7.60143474,8.29315282 8.10042952,8.15858215 C8.77511756,7.9766299 8.82410368,8.21533507 8.98036638,7.83878845 C9.13662908,7.46224184 8.72762546,7.4624617 7.16357659,6.54913967 C5.59952772,5.63581764 6.11375936,4.79926518 6.11375936,3.83139259 C6.11375936,2.86352001 6.33549111,2.72190428 5.96750942,2.1180246 C5.59952772,1.51414493 5.95382696,1.67394387 5.59952772,1.4120164 C5.24522848,1.15008893 3.05648112,0.0629523449 2.43582679,0.480754119 C1.81517246,0.898555892 -0.482821527,2.61418694 0.842143466,8.15858215 C1.01806077,8.8947186 1.62464119,9.46855091 1.97766015,10.0288962 C2.5802139,10.9853268 3.03964908,11.8007079 3.67192302,12.5797825 C4.24345056,13.2840067 5.08936685,14.2039567 6.20967189,15.3396327 C7.2906432,16.4413427 8.14657005,17.2960735 8.77745244,17.9038253 C9.18410192,18.2955655 9.64807418,19.0698026 10.3324949,19.7040471 C10.5840951,19.937202 11.0309124,20.2367206 11.672947,20.602603 L11.821139,20.8484156 C11.6169528,21.0426415 11.2834077,20.9607039 10.8205037,20.602603 C10.1261476,20.0654515 8.66178148,18.271432 8.10042952,17.9038253 C7.53907757,17.5362186 4.44409215,14.1743512 4.24474903,13.853195 C4.0454059,13.5320389 3.21535356,12.8365127 3.02497042,12.5797825 C2.83458729,12.3230522 0.765694788,9.14166771 0.489462936,8.71060922 C0.213231084,8.27955072 -0.118953916,4.12985827 0.0998255664,3.05975887 C0.318605048,1.98965948 0.628546023,1.87469751 0.842143466,1.57129243 C1.05574091,1.26788735 1.65499678,0.0178800213 2.43582679,0.0178800213 C3.2166568,0.0178800213 4.89487641,0.356947747 5.89544718,1.22340233 C6.10504066,1.40490197 6.00348308,1.57774135 6.11375936,1.83187146 C6.21278754,2.06008049 6.5318419,2.36425314 6.57325382,2.62409867 C6.70587622,3.45625857 6.47055111,4.39183448 6.47055111,4.9992258 C6.47055111,5.33099607 6.9022645,5.53022383 7.36083926,5.8406133 C8.29588037,6.47350228 9.65038151,7.1844864 9.83984955,7.73399893 C9.99618935,8.18742988 8.9976601,8.39111199 8.10042952,8.71060922 C7.37703379,8.96820513 6.78944675,9.43083735 6.38665691,9.15992852 C6.01346254,8.90892504 5.33308757,8.23570484 5.13459635,7.42208668 C4.85314237,6.268403 5.13459635,4.83726758 5.13459635,3.9690081 C5.13459635,3.57799169 4.14148716,2.86644074 3.26028983,3.27331075 C2.28589707,3.72321134 1.665071,4.91810349 2.43582679,6.67750479 C3.082241,8.15307204 3.97369594,10.6741472 5.26324776,12.5797825 C5.75372426,13.3045842 6.45945118,13.9253858 6.95226524,14.4464842 C8.10042952,15.6605456 8.98036638,16.8500701 8.98036638,16.8371447 C8.98036638,16.80418 9.318457,16.4316314 9.83984955,16.6141918 C10.3612421,16.7967521 10.9382138,18.9080915 11.5956004,19.6039195 C11.8729604,19.8974984 12.2139356,20.0046032 12.3157629,20.3630849 C12.3551432,20.5017228 12.2439255,20.6794677 11.9821095,20.8963196 Z" id="Path-78" fill="#333333"></path>
                            <path d="M37.1261956,20.8963196 L36.9036042,20.602603 C37.1086744,20.5730002 37.145773,20.4931608 37.0148999,20.3630849 C36.8185902,20.1679709 36.2744598,19.8715285 35.9645897,19.2615963 C35.6547196,18.651664 34.9657038,16.7959817 34.7620664,16.9441968 C34.5584289,17.0924119 34.6440135,17.5362186 34.4319473,17.5362186 C34.219881,17.5362186 31.1860063,13.9917989 30.7436137,13.093243 C30.3012211,12.1946871 29.8239109,11.9740535 29.5711092,11.477394 C29.3183075,10.9807346 28.4547462,8.83897434 28.1690564,8.60046354 C27.8833667,8.36195274 26.3695953,5.76604719 26.9592585,4.26281469 C27.5489217,2.75958219 29.2174358,2.18753296 30.2786824,3.20912819 C31.3399289,4.23072341 29.7934004,7.63772508 31.6146371,8.47209841 C32.3889414,8.82683474 32.7455208,8.29315282 33.2445155,8.15858215 C33.9192036,7.9766299 34.4754352,8.24158448 34.6316979,7.86503786 C34.7879606,7.48849125 33.8717115,7.4624617 32.3076626,6.54913967 C30.7436137,5.63581764 31.6146371,4.84989236 31.6146371,3.88201978 C31.6146371,2.91414719 31.4795771,2.72190428 31.1115954,2.1180246 C30.7436137,1.51414493 31.097913,1.67394387 30.7436137,1.4120164 C30.3893145,1.15008893 28.2005671,0.0629523449 27.5799128,0.480754119 C26.9592585,0.898555892 24.6612645,2.61418694 25.9862295,8.15858215 C26.1621468,8.8947186 26.7687272,9.46855091 27.1217462,10.0288962 C27.7242999,10.9853268 28.1837351,11.8007079 28.816009,12.5797825 C29.3875366,13.2840067 30.2334529,14.2039567 31.3537579,15.3396327 C32.4347292,16.4413427 33.2906561,17.2960735 33.9215385,17.9038253 C34.3281879,18.2955655 34.7921602,19.0698026 35.4765809,19.7040471 C35.7281811,19.937202 36.1749984,20.2367206 36.817033,20.602603 L36.965225,20.8484156 C36.7610388,21.0426415 36.4274937,20.9607039 35.9645897,20.602603 C35.2702336,20.0654515 33.8058675,18.271432 33.2445155,17.9038253 C32.6831636,17.5362186 29.5881782,14.1743512 29.388835,13.853195 C29.1894919,13.5320389 28.3594396,12.8365127 28.1690564,12.5797825 C27.9786733,12.3230522 25.9097808,9.14166771 25.633549,8.71060922 C25.3573171,8.27955072 25.0251321,4.12985827 25.2439116,3.05975887 C25.4626911,1.98965948 25.772632,1.87469751 25.9862295,1.57129243 C26.1998269,1.26788735 26.7990828,0.0178800213 27.5799128,0.0178800213 C28.3607428,0.0178800213 30.0389624,0.356947747 31.0395332,1.22340233 C31.2491267,1.40490197 31.1475691,1.57774135 31.2578454,1.83187146 C31.3568736,2.06008049 31.6759279,2.36425314 31.7173398,2.62409867 C31.8499622,3.45625857 31.7416515,4.38530623 31.7416515,4.99269756 C31.7416515,6.00095258 34.7015462,6.91498747 34.9839356,7.73399893 C35.1402754,8.18742988 34.1417461,8.39111199 33.2445155,8.71060922 C32.5211198,8.96820513 31.9335328,9.43083735 31.5307429,9.15992852 C31.1575486,8.90892504 30.4771736,8.23570484 30.2786824,7.42208668 C29.9972284,6.268403 30.2786824,4.83726758 30.2786824,3.9690081 C30.2786824,3.57799169 29.2855732,2.86644074 28.4043758,3.27331075 C27.4299831,3.72321134 27.0165318,4.78973837 27.7872876,6.54913967 C28.4337018,8.02470691 29.4540619,10.5962352 30.7436137,12.5018705 C31.2340902,13.2266721 31.6035372,13.9253858 32.0963513,14.4464842 C33.2445155,15.6605456 34.1244524,16.8500701 34.1244524,16.8371447 C34.1244524,16.80418 34.462543,16.4316314 34.9839356,16.6141918 C35.5053281,16.7967521 36.0822998,18.9080915 36.7396864,19.6039195 C37.0170464,19.8974984 37.3580216,20.0046032 37.4598489,20.3630849 C37.4992293,20.5017228 37.3880115,20.6794677 37.1261956,20.8963196 Z" id="Path-78" fill="#333333" transform="translate(31.320284, 10.484372) scale(-1, 1) translate(-31.320284, -10.484372) "></path>
                            <path d="M10.9915358,5.26297023 C12.1331469,5.64806561 13.0469248,4.87787484 13.0469248,5.64806561 C13.0469248,6.16152612 12.3617951,6.63360393 10.9915358,7.06429905 C12.9603215,7.36662905 14.1037845,7.36662905 14.421925,7.06429905 C14.7400654,6.76196906 14.7400654,6.16152612 14.421925,5.26297023 C11.3739248,5.00623997 10.2304618,5.00623997 10.9915358,5.26297023 Z" id="Path-92" fill="#FFFFFF"></path>
                            <path d="M8.57533659,2.91292834 C9.67620328,3.03339627 10.4014694,3.06399839 10.7511349,3.0047347 C11.2756333,2.91583916 13.9251408,3.01470109 15.8468843,3.07140933 C18.6306568,3.15355495 21.4133036,3.00364758 23.4671119,2.91292834 C26.9387418,2.75958219 29.3473422,2.63148511 29.6405113,3.59422357 C29.8359573,4.23604921 29.6450907,4.64015482 29.0679114,4.8065404 L27.7844218,7.76609021 L27.0450188,7.9586379 C28.0511945,5.86200749 28.5542823,4.72811553 28.5542823,4.55696203 C28.5542823,4.38580852 28.789117,4.24136436 29.2587864,4.12362954 C29.0218193,3.49695562 28.6401464,3.21351603 28.1137677,3.27331075 C27.587389,3.33310547 21.1478127,3.33310547 8.79503894,3.27331075 C8.18231975,3.72245512 7.94083493,4.00589472 8.07058445,4.12362954 C8.20033398,4.24136436 8.34077274,4.38580852 8.49190073,4.55696203 C15.7538845,4.60020025 21.1175708,4.60020025 24.5829594,4.55696203 C28.048348,4.5137238 29.543332,4.42814705 29.0679114,4.30023177 L28.8559865,4.55696203 C28.6173423,4.58129318 28.451027,4.59824861 28.3570407,4.60782832 C28.3090442,4.61272044 27.8555597,5.28850841 27.4714121,6.04310988 C27.030285,6.90963926 26.6479195,7.8705366 26.5277746,7.87838424 C26.3030037,7.89306586 27.9816777,4.64607557 27.9398402,4.65033502 C27.4844657,4.69669642 27.167339,4.72888013 26.9884601,4.74688613 C26.9592661,4.74982482 26.6183636,5.07853029 26.3778712,5.55394209 C26.1224118,6.05894111 25.8320528,6.6988892 25.6406248,7.16776021 C25.5898211,7.29219558 25.5485413,7.50420325 25.5167855,7.80378323 C25.4389128,7.80313069 25.3967104,7.80313069 25.3901784,7.80378323 C25.3679219,7.80600664 25.299421,7.62744628 25.4593752,7.16776021 C25.5870682,6.80078864 25.9233693,6.19320977 26.0837846,5.80518151 C26.3193546,5.23536156 26.6031943,4.78540419 26.5830624,4.78739166 C26.1609965,4.8290588 25.8607702,4.85751345 25.6823837,4.8727556 C25.666199,4.8741385 25.6622596,5.20640402 25.5167855,5.64806561 C25.3936867,6.0217959 25.1357457,6.47416111 25.0286709,6.86753432 C24.889232,7.37980763 24.8609966,7.80249479 24.8451378,7.80378323 C24.8284863,7.80513608 24.7757753,7.38034643 24.8835421,6.86753432 C24.972504,6.44420563 25.2752632,5.96956956 25.3901784,5.58388305 C25.5068437,5.19232245 25.4349141,4.89290219 25.4227766,4.8938194 C25.123411,4.91644176 24.8653046,4.93257649 24.6484573,4.94222359 C24.6135607,4.94377607 24.6371391,5.48550343 24.5418249,6.04310988 C24.3998469,6.87370883 24.1269136,7.83152078 24.0752846,7.83344356 C24.0347492,7.83495319 24.2851369,6.71490082 24.3951384,5.87906724 C24.4586815,5.39624259 24.4184247,4.99375397 24.3951384,4.99450171 C23.9206889,5.00973669 23.4564124,5.01574168 23.0075462,5.01575295 C22.9704545,5.01575389 22.7885174,7.61502159 22.5401214,7.61502159 C22.4158909,7.61502159 22.5626155,6.98701475 22.6602933,6.33693079 C22.7579199,5.68718747 22.8064719,5.01536685 22.7885174,5.01529146 C21.5474425,5.01007991 20.4336472,4.96211384 19.5617571,4.94222359 C19.537951,4.94168051 19.5080394,5.52637953 19.4977595,6.11736231 C19.4837348,6.92362436 19.6043227,7.84946547 19.4977595,7.84946547 C19.3130864,7.84946547 19.4242293,4.98171281 19.3792267,4.98077739 C19.1564839,4.97614749 18.9479862,4.97254636 18.7546566,4.97086675 C18.7303453,4.97065554 18.6814984,5.46745987 18.681547,6.04310988 C18.6816127,6.82215468 18.833631,7.74741172 18.681547,7.74251461 C18.4170853,7.73399893 18.5882212,4.97504862 18.5349279,4.9752857 C18.466992,4.97558791 18.4009737,4.97623045 18.3368895,4.97726146 C18.2725833,4.97829604 18.208687,4.97909769 18.1451934,4.97967991 C18.1307182,4.97981265 18.0491427,5.43236792 18.0347133,5.96770932 C18.0122898,6.79964311 18.2857206,7.84946547 18.1115721,7.84946547 C17.9374237,7.84946547 17.8994551,6.8381863 17.8780296,6.01139628 C17.8637967,5.4621642 17.9418581,4.98081702 17.92767,4.98083862 C17.8303506,4.98098679 17.7339846,4.98064183 17.6385443,4.97985455 C17.6003801,4.97953973 17.2754828,5.06577137 17.2364282,5.63581764 C17.1802367,6.45599687 17.4098511,7.85301286 17.3559645,7.85209135 C17.3060488,7.85123774 17.1497618,6.95510611 17.1020232,6.1495345 C17.0661611,5.54437565 17.1388586,4.97178379 17.1020232,4.97086675 C16.9064101,4.96599683 16.7147432,4.95956586 16.5267568,4.95206212 C16.5080415,4.95131507 16.4472123,5.6434074 16.4961488,6.33693079 C16.5492876,7.0900092 16.7102851,7.84946547 16.6244359,7.84946547 C16.5392145,7.84946547 16.4097542,7.08707701 16.3520042,6.33693079 C16.2980038,5.63549119 16.3135597,4.94305231 16.2951086,4.94222359 C16.0763213,4.93239688 15.8625287,4.92135234 15.6532913,4.90989781 C15.6304503,4.9086474 15.6162932,5.61011464 15.6986817,6.33693079 C15.7832814,7.08325345 15.9639644,7.85545893 15.8983095,7.85545893 C15.8344682,7.85545893 15.659151,7.18292209 15.5525876,6.45410646 C15.4428339,5.70347229 15.4024021,4.89589736 15.3795971,4.89460234 C14.8039132,4.86191139 14.2625222,4.82879292 13.745736,4.81305605 C13.6759811,4.81093192 14.1859355,7.52961647 14.1170533,7.52816948 C14.0731266,7.52724673 13.8857139,6.49753202 13.6750512,5.71224817 C13.5356621,5.19264989 13.3489154,4.80461141 13.3202187,4.80434396 C13.1705059,4.80294863 13.0227277,4.80352504 12.8766298,4.8065404 C12.6854238,4.81048674 12.5002775,4.8143857 12.3211909,4.81823726 C12.2973437,4.81875013 12.2547138,5.18025432 12.3522486,5.66790892 C12.532268,6.56797013 12.9195158,7.86276484 12.8766298,7.86370262 C12.8450717,7.8643927 12.6389344,7.20962776 12.4196812,6.45410646 C12.1980812,5.69049849 11.963348,4.82604795 11.9322578,4.82673911 C11.5784526,4.83460449 11.2508674,4.84226481 10.9495022,4.84972006 C10.9239007,4.85035339 10.960355,5.38311827 11.1565717,5.96770932 C11.4489004,6.83864783 11.9345862,7.87838424 11.7978684,7.87838424 C11.5693828,7.87838424 10.6485267,4.85731626 10.5934183,4.85875086 C10.3446263,4.8652275 10.1165425,4.87154217 9.90916695,4.87769489 C9.90261016,4.87788943 9.88945709,5.34670418 10.1077155,6.19196787 C10.1876591,6.50157071 10.3811739,7.07816008 10.6882601,7.92173597 C10.3760301,7.24631207 10.1468398,6.68422817 10.0006892,6.23548428 C9.78146323,5.56236845 9.73403931,4.88299959 9.69893724,4.88409872 C9.54403743,4.88894898 9.4024944,4.89369479 9.27430815,4.89833613 C9.24715723,4.8993192 9.34088123,5.4038104 9.73081671,6.33693079 C9.85284993,6.62895779 10.1110793,7.15722618 10.5055047,7.92173597 C10.458566,7.92173597 10.4221179,7.92173597 10.3961603,7.92173597 C10.0947123,7.92173597 8.96408821,4.91042506 8.91179402,4.91273925 C8.53826551,4.92926911 8.39830108,4.95077651 8.49190073,4.97726146 C9.39650846,7.09321088 9.94249416,8.08700303 10.1298578,7.9586379 C10.1685548,7.93212613 10.4594637,7.90888809 11.0025844,7.8889238 C11.0279447,7.8879916 10.8599382,7.14495278 10.6272153,6.41615815 C10.3953477,5.69004202 10.0987493,4.97816016 10.1298578,4.97726146 C10.1598998,4.97639357 10.4969898,5.67947857 10.7942334,6.41615815 C11.0824794,7.13053838 11.3310442,7.87919911 11.3653702,7.87838424 C11.5190354,7.87473635 11.7397902,7.87116107 12.0276345,7.8676584 C12.0611116,7.86725103 11.7247721,6.83172798 11.5117082,5.96770932 C11.4084894,5.54913564 11.3434945,5.16207933 11.3167234,4.8065404 C11.4040497,5.20276633 11.5193354,5.61495616 11.6625805,6.04310988 C11.9488388,6.89872378 12.3793147,7.86405261 12.4196812,7.86370262 C12.6430732,7.86176575 13.0012917,7.8595238 13.4943366,7.85697677 C13.5383591,7.85674935 12.617938,4.8067855 12.6681026,4.8065404 C12.6924602,4.80642138 12.8309953,5.01861472 13.0768926,5.71224817 C13.1644571,5.95925227 13.2771439,6.62933255 13.3572473,6.86753432 C13.5431633,7.42038932 13.7827091,7.85556482 13.8054526,7.85545893 C13.9881832,7.85460822 14.2567,7.85348569 14.6110031,7.85209135 C14.633585,7.85200248 14.4567345,6.96031794 14.2454651,6.1495345 C14.0629154,5.44896761 13.8409984,4.81314331 13.8636632,4.81305605 C13.8873492,4.81296486 14.1335829,5.37798657 14.3523605,6.04310988 C14.6268593,6.87763524 14.8856381,7.85103266 14.9198718,7.85090325 C14.9468432,7.85080129 14.88695,6.98349247 14.7382827,6.19196787 C14.6061613,5.48853596 14.3763068,4.849837 14.4946207,4.85875086 C14.7460652,4.87769489 15.2306648,7.84975097 15.3091214,7.84946547 C15.8687056,7.8474292 17.3909458,7.84208857 19.875842,7.83344356 C19.8923351,7.83338618 19.9759215,7.50011795 19.9850619,7.13566893 C19.996191,6.6919223 19.9347739,6.16785636 19.9850619,5.71224817 C20.0319039,5.28786015 20.207329,5.03231537 20.2274853,5.03224528 C20.2461744,5.03218029 20.1034438,5.35843257 20.0971585,5.75489102 C20.0912801,6.12568209 20.1726844,6.54239768 20.1971058,6.93171688 C20.2272927,7.4129479 20.2043714,7.83230111 20.2274853,7.83222077 C20.3291043,7.83186755 20.4480906,7.83145421 20.5844443,7.83098074 C20.6443386,7.83077277 20.6168853,4.98849307 20.7786694,4.97967991 C20.9404535,4.97086675 20.9404535,7.82974515 21.0252977,7.82945081 C21.0902067,7.82922563 21.167826,7.8289564 21.2581555,7.82864313 C21.2984024,7.82850355 21.306219,4.98083862 21.6038844,4.98083862 C21.7366129,4.98083862 21.5900568,5.56471489 21.5551504,6.19196787 C21.5117734,6.97143212 21.5615087,7.82759125 21.6038844,7.82744433 C21.6626852,7.82724046 21.7540462,7.8337439 21.8406796,7.83344356 C21.8779939,7.8333142 21.9809186,5.03224528 22.2579828,5.03224528 C22.3789523,5.03224528 22.1967809,5.54806075 22.1426065,6.1495345 C22.0727018,6.92565506 22.1071682,7.83242697 22.1426065,7.83228308 C22.340846,7.83147818 22.7203496,7.82981928 23.2811173,7.82730637 C23.3041491,7.82720316 23.3905226,6.99915709 23.4671119,6.23548428 C23.5291243,5.61715795 23.5718315,5.03516771 23.6710056,5.01529146 C23.8926662,4.97086675 23.5159724,7.82624983 23.5707439,7.82600236 C23.9327829,7.82436655 24.7456513,7.82065646 26.0093491,7.81487209 C26.0486108,7.81469237 27.1584024,4.68147643 27.4714121,4.68147643 C27.6002747,4.68147643 27.2074884,5.18052532 26.9450778,5.80518151 C26.5700881,6.69782692 26.2480231,7.81377937 26.2775226,7.81364429 C26.5942649,7.81219386 27.3117216,7.80890684 28.4298928,7.80378323 L28.1137677,8.02282047 L9.59412728,8.27955072 C9.13906969,8.97537995 9.02530529,9.4274617 9.25283409,9.63579597 C9.59412728,9.94829738 10.2589711,10.0366706 10.7511349,9.94829738 C11.2432987,9.8599242 17.3394617,9.96429724 17.8272819,10.148845 C18.3151022,10.3333928 21.9464085,9.94829738 24.0752846,9.94829738 C26.2041607,9.94829738 25.3913234,10.0821871 26.7525455,9.94829738 C27.660027,9.85903756 28.1137677,9.26528782 28.1137677,8.16704816 L28.5542823,7.9586379 C28.5461858,9.42889607 27.9456069,10.1922531 26.7525455,10.248709 C24.9629535,10.3333928 23.933539,10.048981 22.8462515,10.148845 C21.7589641,10.248709 18.3117375,10.5464417 17.6865763,10.3975753 C17.1463002,10.2689222 13.0788577,10.0443637 11.3629654,10.2193852 C11.3158912,10.2241868 11.658348,11.550635 11.7978684,13.2783802 C11.9701672,15.4120373 12.3819145,18.9762703 12.4196812,20.4759831 C12.4214885,20.5477504 17.2567839,20.4631259 21.2581555,20.3247593 C22.9484832,20.2663082 24.3191457,20.1111438 25.3901784,20.0950877 C25.6030886,20.091896 26.154084,10.2029195 26.2775226,10.2193852 C26.3288162,10.2262274 26.5543051,9.98453232 26.5830624,10.248709 C26.6658303,11.0090511 26.344748,12.8174464 26.2775226,14.6421413 C26.1752635,17.4177572 26.2787832,20.3195599 26.2775226,20.3247593 C26.2528358,20.4265815 24.2063009,20.6837531 21.6038844,20.7518462 C19.8083754,20.7988263 18.6465399,20.7603305 16.9232966,20.7518462 C15.8427926,20.7465264 14.6571803,20.9497372 13.745736,20.950865 C12.7864977,20.9520518 12.1287295,20.7513178 12.1258135,20.7518462 C12.0596994,20.7638258 11.7425713,16.7569022 11.3653702,13.7029774 C11.1369784,11.8538543 10.7763542,10.3239092 10.7511349,10.3333928 C9.78858612,10.6953519 8.16818713,10.4236896 8.8811572,8.27955072 C9.59412728,6.13541187 8.27808066,5.26999372 8.27808066,5.19878766 C8.27808066,5.16627164 7.39307334,4.7713799 7.59400663,4.04363514 C7.70163623,3.65381977 8.02874622,3.27691751 8.57533659,2.91292834 Z" id="Path-79" fill="#333333"></path>
                            <path d="M13.4677517,11.2447852 C14.421925,12.3915136 14.7399827,13.1146372 14.421925,13.4141558 C13.9448384,13.8634338 12.9261108,13.9276163 12.9261108,14.3127117 C12.9261108,14.6978071 15.1436574,14.3768943 15.1436574,14.8903548 C15.1436574,15.4038153 13.344634,20.0329554 14.0348841,20.0329554 C14.4950509,20.0329554 14.6240645,20.1796759 14.421925,20.4731169 C15.3574526,20.4731169 16.2387247,20.4731169 17.0657414,20.4731169 L18.6428891,20.3959833 C17.9722336,16.2548922 17.5486869,14.0559815 17.3722492,13.7992512 C17.1075926,13.4141558 16.6342794,13.7350686 16.4175685,13.7992512 C16.2730945,13.8420396 16.2730945,13.0311059 16.4175685,11.3664503 C15.6577869,11.3290428 15.0936422,10.961872 14.7251343,10.2649378 C14.4894532,9.81920996 14.5756246,10.5228772 14.2985336,10.9144762 C14.1944236,11.0616095 13.9174964,11.1717125 13.4677517,11.2447852 Z" id="Path-91" fill="#FFFFFF"></path>
                            <path d="M11.8866954,20.8288269 C11.8866954,20.8288269 12.3396342,20.7655403 12.231996,20.602603 C12.1243577,20.4396656 11.2609757,20.172839 11.048684,21.0579976 C10.9071561,21.6481034 11.0284995,22.1434988 11.412714,22.5441838 L12.6849348,22.5441838 C13.3764299,24.1108606 14.558871,24.8050562 16.2322581,24.6267705 C16.3219533,24.6172142 16.6722709,26.1581063 18.032209,26.186486 C18.805361,26.2026204 20.7475065,26.1597114 21.5611147,25.8842772 C22.3747229,25.6088429 22.3747229,24.6182512 22.4183406,24.5045863 C22.4895969,24.3188968 22.1669831,24.3755435 21.9452152,24.6267705 C21.7149619,24.8876102 21.6982705,25.4569301 21.2649733,25.6664685 C20.8316762,25.876007 18.241367,25.8403484 17.3738855,25.6088429 C16.4815494,25.3707045 16.818489,24.5671083 16.8496621,24.5641291 C18.7309478,24.3843349 18.7053277,24.5045863 19.3240331,24.5045863 C20.004001,24.5045863 23.3398917,24.7744224 23.872897,24.5591328 C24.4059023,24.3438433 25.8863481,22.8230107 25.6886818,22.2689307 C25.4910154,21.7148508 25.5197227,22.7349086 26.3380079,22.4731605 C27.1562931,22.2114123 27.5389406,20.5914178 26.9016176,20.2191095 C26.4767356,19.970904 25.9557832,19.970904 25.3387602,20.2191095 C26.4761258,20.2876004 26.9970783,20.6038341 26.9016176,21.1678104 C26.8659524,21.3785185 26.3223083,21.6439852 25.2706854,21.9642106 C24.8577963,23.1540352 24.4174788,23.8506026 23.949733,24.0539127 C23.9094464,24.0714237 24.4209313,23.4236817 24.6471665,22.8998788 C24.8090959,22.5249632 24.7121716,22.2224472 24.6812202,22.2318097 C24.6676953,22.2359008 24.6770624,22.6315628 24.4775735,22.9984496 C24.1763929,23.5523611 23.6241894,24.1557421 23.5858747,24.1608955 C23.5087055,24.1712749 23.4132664,24.1804064 23.3081949,24.188291 C23.2695353,24.191192 23.7818941,23.6538865 24.0032149,23.1415299 C24.195437,22.6965366 24.1017105,22.2669588 24.065206,22.2689307 C24.0318311,22.2707335 24.0207503,22.7591663 23.7606332,23.2052984 C23.4581727,23.7240549 22.901063,24.2114287 22.8618408,24.2129901 C22.7828357,24.2161353 22.7046566,24.2186973 22.6300713,24.2206764 C22.5974378,24.2215423 23.1806032,23.6082041 23.3753543,23.0602338 C23.5337851,22.6144578 23.4866264,22.2056054 23.4591475,22.2061289 C23.4311571,22.206662 23.4276919,22.6261467 23.2191513,23.0602338 C22.951476,23.6174125 22.4657439,24.2201874 22.4290348,24.2206764 C22.3309617,24.2219827 22.2318218,24.2229497 22.1331196,24.2237361 C22.0981435,24.2240147 22.4997644,23.666789 22.6300713,23.1415299 C22.7474885,22.668229 22.7875307,22.231718 22.7544588,22.2318097 C22.7274032,22.2318847 22.5945274,22.7352999 22.4183406,23.2052984 C22.2203095,23.7335692 21.9767463,24.2352436 21.9452152,24.235226 C21.9244668,24.2352144 21.8880139,23.7968875 21.9707425,23.3199758 C22.0584087,22.8145998 22.2656005,22.2689867 22.2430752,22.2689307 C22.2258924,22.268888 21.985911,22.6657858 21.8746977,23.0973122 C21.7357126,23.6365977 21.7201828,24.2347324 21.6982705,24.234647 C21.5883771,24.2342187 21.4754674,24.2335824 21.3598088,24.232826 C21.3501728,24.232763 21.2514864,24.1482073 21.2649733,24.0129874 C21.2872575,23.7895669 21.4540189,23.4354383 21.5176456,23.0973122 C21.6021466,22.6482562 21.5826572,22.2319631 21.5611147,22.2318097 C21.5045095,22.2314065 21.1045564,24.2310307 21.0467619,24.2305981 C20.5140468,24.2266109 19.9320694,24.2217866 19.3240331,24.2237361 C19.1917613,24.2241601 19.0590375,24.2261148 18.926322,24.2292502 C18.8895512,24.2301189 18.8813131,22.5853673 18.8281404,22.1395007 C18.8187532,22.060787 18.7273362,22.171079 18.7208473,22.1712682 C18.6729812,22.1726639 18.700842,24.2356108 18.6530388,24.2372677 C18.5581292,24.2405574 18.4633862,24.2443296 18.368979,24.2484558 C18.3427563,24.2496019 18.3091935,23.557206 18.2682907,22.1712682 C18.2119518,22.1707616 18.1784898,22.1707616 18.1679047,22.1712682 C18.1106351,22.1740091 18.0891171,24.2616287 18.032209,24.2645474 C17.9362941,24.2694668 17.8409473,24.2745975 17.746352,24.2797999 C17.7105099,24.2817712 17.6363705,23.5789273 17.5239338,22.1712682 C17.4305662,22.170895 17.3805501,22.170895 17.3738855,22.1712682 C17.3030594,22.1752345 17.4146542,24.2983142 17.3449128,24.3021941 C17.3124925,24.3039978 17.0333558,23.7710978 16.8697564,23.2455088 C16.7167337,22.7538989 16.6786633,22.2673225 16.6488225,22.2689307 C16.6144967,22.2707806 16.5710181,22.6912186 16.6488225,23.1415299 C16.7460697,23.7043712 16.9709807,24.3222731 16.9290604,24.3243572 C16.8882861,24.3263843 16.4820578,23.7641759 16.2620772,23.2052984 C16.0716907,22.7216069 16.0639718,22.2303307 16.0296249,22.2318097 C15.9923902,22.233413 15.9291542,22.6681067 16.0296249,23.0973122 C16.1694836,23.6947809 16.5386663,24.2815701 16.4887607,24.2831379 C16.4382147,24.2847257 15.9458325,23.8786744 15.6532983,23.3613153 C15.3801019,22.8781562 15.2583311,22.3429649 15.2134756,22.3435248 C15.2037147,22.3436466 15.26509,22.8296254 15.4456771,23.2922166 C15.6307509,23.7663008 15.9342778,24.2165337 15.8502965,24.1536035 C15.5993871,23.9655881 15.2421544,23.6613174 14.9624433,23.3199758 C14.5637818,22.8334747 14.3697614,22.2323557 14.3296529,22.2318097 C14.2772849,22.2310968 14.4412261,22.8067446 14.7692539,23.3199758 C15.1158047,23.8621879 15.6277434,24.3435218 15.5771941,24.3405302 C15.1878277,24.3174866 14.8756349,24.2569916 14.6753573,24.132644 C13.6786702,23.5138245 13.4532465,22.8435327 13.4066246,22.4877352 C13.4060297,22.4831952 13.4662389,22.4779077 13.5872523,22.4718728 C13.6030414,22.4710854 13.8439031,22.9765224 14.2364083,23.4204476 C14.5239818,23.7456945 14.680502,24.1011194 14.9050634,24.2831379 C15.0146834,24.3719905 15.9905377,24.4679138 15.6532983,24.4256346 C15.3160588,24.3833554 14.6318999,23.7444274 14.3296529,23.3199758 C14.0274059,22.8955241 13.8583006,22.4617303 13.9350628,22.4594385 C14.4627544,22.4436835 16.2796932,22.4054343 19.3858791,22.3446907 C19.4190634,22.3440417 19.3865431,24.245957 19.417529,24.2645474 C19.4279356,24.270791 19.4772053,24.5527608 19.499991,24.2645474 C19.5450501,23.6945987 19.5730778,22.3410366 19.5980371,22.3405504 C19.7136191,22.338299 19.8688741,22.2094395 20.040296,22.2061289 C20.0587109,22.2057732 19.9815424,22.531023 19.9631013,22.8998788 C19.9366634,23.4286852 19.9635056,24.0601 19.9940294,24.0602983 C20.0220512,24.0604803 19.9891105,23.428651 20.0753144,22.8998788 C20.1354684,22.5308953 20.3194018,22.2062998 20.3448495,22.2061289 C20.3959749,22.2057855 20.4572258,22.2055532 20.5286023,22.205432 C20.5588262,22.2053807 20.4881785,24.3021592 20.5286023,24.3021941 C20.5429387,24.3022065 20.6217265,24.4903155 20.6501361,24.2372677 C20.6863863,23.9143826 20.6541535,23.3826307 20.6794049,22.9381633 C20.7021507,22.5377991 20.7829466,22.2056686 20.8044754,22.2057255 C21.2507557,22.2069054 22.7394924,22.2156001 25.2706854,22.2318097 L25.2706854,21.9642106 C17.3567174,22.14261 13.3992698,22.2318097 13.3983425,22.2318097 C13.3357948,22.2318097 13.2442142,21.9642106 13.0383688,21.9642106 C12.8325235,21.9642106 12.5756445,22.104606 11.7491271,22.0978882 C11.1231874,21.4369763 11.8866954,20.8288269 11.8866954,20.8288269 Z" id="Path-81" fill="#333333"></path>
                            <path d="M11.3468322,11.3924051 C11.9586541,11.0193638 12.2030472,10.5633687 12.0800116,10.0244196 C11.8954582,9.21599596 11.9337598,11.1998574 13.2454591,11.2961312 C14.1199253,11.3603138 14.5819143,10.9110358 14.6314261,9.94829738 C15.0714272,10.9752184 15.7241629,11.4565876 16.5896333,11.3924051 C17.4551036,11.3282225 18.0705412,10.8468533 18.4359458,9.94829738 L18.8049489,10.099982 C18.9870457,10.9623663 19.6460093,11.393174 20.7818397,11.3924051 C21.9176701,11.3916361 22.5337823,10.9102669 22.6301763,9.94829738 C22.3588129,10.8468533 22.7244944,11.2961312 23.7272208,11.2961312 C24.7299471,11.2961312 25.245496,10.7914844 25.2738676,9.78219076 C25.3138645,11.0696088 25.668578,11.6598324 26.3380079,11.5528615" id="Path-80" stroke="#333333" stroke-width="0.5" stroke-linecap="round" stroke-linejoin="round"></path>
                            <path d="M18.3732814,26.0008344 C18.3732814,26.9465743 18.3732814,27.5993783 18.3732814,27.9592463 C18.3732814,28.4990483 18.0297802,29.6444101 16.7321483,29.989968 C15.4345163,30.3355258 15.2382048,32.0150768 15.6071929,32.187718 C15.8531851,32.3028121 18.3912722,32.322676 23.2214545,32.2473096 C23.5731574,31.2525277 23.2092254,30.5000805 22.1296587,29.989968 C21.0500919,29.4798555 20.4859974,28.8029482 20.4373752,27.9592463 L20.4373752,26.0008344 L20.0066538,26.0008344 C20.0507154,26.2204986 20.1242255,26.8733026 20.2271843,27.9592463 C20.3816224,29.5881619 21.6453672,29.8799273 22.2983564,30.4340963 C22.7336826,30.8035423 22.8729115,31.3025225 22.7160433,31.931037 C20.7917536,31.8716578 19.7308119,31.8667394 19.5332182,31.9162816 C19.2368277,31.990595 16.196416,32.0969997 16.0167968,31.990595 C15.8371776,31.8841903 15.8923161,30.6810837 17.0698755,30.3355258 C17.8549151,30.1051539 18.3872644,29.1514138 18.6669234,27.4743054 L18.6669234,26.0008344 L18.3732814,26.0008344 Z" id="Path-82" fill="#333333"></path>
                            <path d="M15.7847327,32.4763773 C15.7847327,32.4294395 15.9531363,32.1097906 15.7847327,32.0662384 C15.6163291,32.0226863 14.5694823,32.420181 14.7448676,33.3339299 C15.3258419,33.3339299 18.3779767,33.3232328 23.9012718,33.3018386 C24.0018164,32.3861424 23.8184222,31.8729405 23.3510893,31.762233 C22.8837564,31.6515255 22.8049337,31.780652 23.1146212,32.1496125 C23.2912005,32.2013559 23.3985418,32.2603703 23.4366451,32.3266555 C23.6271872,32.6581256 23.5704689,32.9898378 23.4961014,32.9898378 C23.3994267,32.9898378 20.6712838,32.9974424 15.3116729,33.0126516 C15.358366,32.8263474 15.40176,32.7117719 15.441855,32.6689249 C15.6161959,32.482618 15.7847327,32.4996431 15.7847327,32.4763773 Z" id="Path-83" fill="#333333"></path>
                            <path d="M15.0593543,33.3018386 C14.494553,33.7558866 14.0193628,34.0361531 13.6337836,34.1426382 C13.2482045,34.2491233 12.8423275,34.5697932 12.4161526,35.1046479 L26.7959015,34.8158264 C26.1284452,34.1362818 25.6309031,33.7858125 25.3032752,33.7644183 C24.8118334,33.732327 23.7649466,33.4078551 23.6295851,33.2363256 C23.5393441,33.1219727 23.5887947,32.9756275 23.777937,32.7972901 C26.0312339,33.3698705 27.280115,34.1389898 27.5245804,35.1046479 C27.6589654,35.4752991 24.8278679,35.3645926 23.1494035,35.3645926 C22.0304271,35.3645926 18.2022944,35.3874054 11.6650051,35.4330308 C11.81349,34.7918821 12.243882,34.2654774 12.9561809,33.8538167 C13.6684799,33.442156 14.3695377,33.2581633 15.0593543,33.3018386 Z" id="Path-84" fill="#333333"></path>
                        </g>
                        <path d="M15.441855,33.8883937 C15.0785832,34.0589694 14.421925,33.9614021 14.421925,34.1816281 C14.421925,34.4018542 16.6297054,34.1816281 17.2463321,33.8883937 C17.6167682,33.7122342 17.1707328,33.3478136 15.8967129,33.4891353 C15.7569129,33.5046428 15.8051267,33.7178179 15.441855,33.8883937 Z" id="Path-87" fill="#FFFFFF"></path>
                        <path d="M18.1386775,30.3583526 L17.3722492,30.6792655 C17.6039478,30.9787841 17.8594239,31.1285434 18.1386775,31.1285434 C18.417931,31.1285434 18.417931,30.8718132 18.1386775,30.3583526 Z" id="Path-88" fill="#FFFFFF"></path>
                        <path d="M10.9915358,8.45773907 L14.421925,8.45773907 C14.1592665,8.95461488 13.9093271,9.25036229 13.672107,9.34498128 C13.3162768,9.48690977 12.353411,9.37065431 12.1331469,9.37065431 C11.6089371,9.37065431 11.2284001,9.06634923 10.9915358,8.45773907 Z" id="Path-89" fill="#FFFFFF"></path>
                        <path d="M13.944862,21.3727937 C13.3764904,21.5653414 13.1486236,21.8220717 14.2229654,21.8220717 C14.9391933,21.8220717 16.314244,21.6723124 18.3481176,21.3727937 C15.7915283,21.2444286 14.3237765,21.2444286 13.944862,21.3727937 Z" id="Path-90" fill="#FFFFFF"></path>
                        <path d="M10.0689263,3.7225887 C9.44608362,3.85095382 9.56999691,4.47267841 11.6650051,4.2226485 C13.0616772,4.0559619 14.3206272,3.93206367 15.441855,3.85095382 C12.2751309,3.67980032 10.4841547,3.63701195 10.0689263,3.7225887 Z" id="Path-93" fill="#FFFFFF"></path>
                        <path d="M2.46205134,2.63148511 C1.95332113,3.13111182 1.48529266,3.59083256 1.48529266,2.63148511 C1.48529266,1.99192015 2.05167675,1.43567126 3.18444492,0.962738456 C3.04200268,1.74215176 2.80120482,2.29840064 2.46205134,2.63148511 Z" id="Path-94" fill="#FFFFFF"></path>
                        <path d="M32.9920766,1.77902015 C33.1546179,1.77902015 34.1232501,0.264510653 34.6956784,0.613624554 C35.2681067,0.962738456 36.5621223,2.45613872 36.1584002,2.63148511 C35.7546782,2.80683151 32.8295352,1.77902015 32.9920766,1.77902015 Z" id="Path-95" fill="#FFFFFF"></path>
                    </g>
                </g>
            </g>
        </g>
    </g>
</svg>