<?xml version="1.0" encoding="UTF-8"?>
<svg width="1190px" height="46px" viewBox="0 0 1190 46" version="1.1" xmlns="http://www.w3.org/2000/svg" xmlns:xlink="http://www.w3.org/1999/xlink">
    <!-- Generator: Sketch 52.2 (67145) - http://www.bohemiancoding.com/sketch -->
    <title>title1</title>
    <desc>Created with Sketch.</desc>
    <g id="Page-1" stroke="none" stroke-width="1" fill="none" fill-rule="evenodd">
        <g id="女频" transform="translate(-365.000000, -1157.000000)">
            <g id="title1" transform="translate(365.000000, 1157.000000)">
                <path d="M97,24 L1148,24" id="Path" stroke="#FBADB0" stroke-width="2" stroke-linecap="round" stroke-linejoin="round" stroke-dasharray="2,6"></path>
                <g id="icon2" transform="translate(1140.000000, 0.000000)">
                    <path d="M25.0101055,4.72272142 L1.75432671,4.72272142 C0.840368478,4.72272142 0.0935977245,5.46754572 0.0935977235,6.38597568 L0.0490143949,42.4679528 C0.0490143949,43.391983 0.790212233,44.1368073 1.70974339,44.1368073 L18.7684395,44.1368073 L19.2309915,45.0496371 C19.5152102,45.6096553 20.0836477,45.9624669 20.7133872,45.9624669 L29.4071363,45.9624669 C30.0145841,45.9624669 30.5718757,45.6264559 30.8672403,45.0944385 L31.3855215,44.1424075 L48.3271864,44.1424075 C49.2411446,44.1424075 49.9879154,43.3975832 49.9879154,42.473553 L49.9879154,6.39157587 C49.9879154,5.4731459 49.2467175,4.72272142 48.3271864,4.72272142 L25.0101055,4.72272142 Z" id="Path" fill="#3B99D9"></path>
                    <path d="M25.372345,4.58831703 C25.0769805,4.78992361 24.6980222,4.82912489 24.3692202,4.68352014 C22.5468766,3.87709383 16.3553668,1.35701161 10.503805,1.35701161 L4.56864933,1.35701161 C4.00021189,1.35701161 3.53765986,1.82182678 3.53765986,2.39304541 L3.53765986,39.7238633 C3.53765986,40.295082 4.00021189,40.7598971 4.56864933,40.7598971 L22.8645328,40.7598971 C23.1654703,40.7598971 23.449689,40.8887013 23.6447411,41.1183088 L24.1351577,41.6839273 C24.5419806,42.1543426 25.2664596,42.1599428 25.6788554,41.7007278 L26.2250012,41.1015083 C26.4200533,40.8831011 26.6986991,40.7598971 26.9884907,40.7598971 L45.3122388,40.7598971 C45.8806762,40.7598971 46.3432282,40.295082 46.3432282,39.7238633 L46.3933845,2.39304541 C46.3933845,1.81622659 45.9308325,1.35141143 45.362395,1.35141143 L39.1040103,1.35141143 C39.1040103,1.35701161 30.4325528,1.12180394 25.372345,4.58831703 Z" id="Path" fill="#FFFFFF"></path>
                    <path d="M24.9933868,44.0528046 L23.249064,42.0367388 C23.054012,41.8071313 22.7697932,41.6783271 22.4688558,41.6783271 L3.57109736,41.6783271 C3.00265992,41.6783271 2.54010788,41.2135119 2.54010788,40.6422933 L2.54010788,1.07140229 C2.54010788,0.500183659 3.00265992,0.0353684943 3.57109736,0.0353684948 L10.6152633,0.0353684948 C16.2216168,0.0353684948 22.0174496,2.21943975 24.3915118,3.22187245 C24.7035951,3.35067666 25.0546888,3.32267574 25.3389075,3.14907008 C30.6053132,-0.121436621 38.6971874,0.0241681295 39.2377602,0.0353684948 L46.5995824,0.0353684948 C47.1735927,0.0353684948 47.6361448,0.500183659 47.6305719,1.07700248 L47.5748427,40.6478935 C47.5748427,41.2191121 47.1122907,41.6839273 46.5438532,41.6839273 L27.5959386,41.6839273 C27.3061469,41.6839273 27.0275011,41.8071313 26.8324491,42.0255384 L24.9933868,44.0528046 Z M4.7637014,39.438254 L23.4886994,39.438254 C23.7896369,39.438254 24.0738556,39.5670582 24.2689077,39.7966657 C24.6757305,40.267081 25.4002096,40.2726812 25.8126054,39.8134662 L25.8460429,39.7798651 C26.041095,39.561458 26.3197408,39.438254 26.6095324,39.438254 L45.3456763,39.438254 L45.3958325,2.26984139 L39.187604,2.26984139 C39.0984373,2.26984139 30.287657,2.073835 25.6900013,5.61315047 L25.6509908,5.64115138 C25.3444805,5.87635905 24.9265118,5.92116052 24.575418,5.75315504 L24.5308347,5.73075431 C24.4360951,5.68595284 17.2191688,2.26984139 10.6096904,2.26984139 L4.7637014,2.26984139 L4.7637014,39.438254 Z" id="Shape" fill="#FDB2C4" fill-rule="nonzero"></path>
                    <path d="M25.0360526,5.18753658 L25.0360526,42.5687561" id="Path" fill="#FFFFFF"></path>
                    <polygon id="Path" fill="#FDB2C4" points="23.8955223 5.18753658 26.1246887 5.18753658 26.1246887 42.5687561 23.8955223 42.5687561"></polygon>
                    <path d="M29.7358187,10.3117038 L41.7624108,10.3117038 C42.3809899,10.3117038 42.8824474,10.8131612 42.8824474,11.4317403 L42.8824474,11.4317403 C42.8824474,12.0503194 42.3809899,12.5517768 41.7624108,12.5517768 L29.7358187,12.5517768 C29.1172396,12.5517768 28.6157822,12.0503194 28.6157822,11.4317403 L28.6157822,11.4317403 C28.6157822,10.8131612 29.1172396,10.3117038 29.7358187,10.3117038 Z M29.7358187,18.7959806 L41.7624108,18.7959806 C42.3809899,18.7959806 42.8824474,19.297438 42.8824474,19.9160171 L42.8824474,19.9160171 C42.8824474,20.5345962 42.3809899,21.0360536 41.7624108,21.0360536 L29.7358187,21.0360536 C29.1172396,21.0360536 28.6157822,20.5345962 28.6157822,19.9160171 L28.6157822,19.9160171 C28.6157822,19.297438 29.1172396,18.7959806 29.7358187,18.7959806 Z M29.7358187,28.2266882 L41.7624108,28.2266882 C42.3809899,28.2266882 42.8824474,28.7281457 42.8824474,29.3467248 L42.8824474,29.3467248 C42.8824474,29.9653039 42.3809899,30.4667613 41.7624108,30.4667613 L29.7358187,30.4667613 C29.1172396,30.4667613 28.6157822,29.9653039 28.6157822,29.3467248 L28.6157822,29.3467248 C28.6157822,28.7281457 29.1172396,28.2266882 29.7358187,28.2266882 Z M8.28009185,10.3061036 L20.3066839,10.3061036 C20.925263,10.3061036 21.4267205,10.807561 21.4267205,11.4261401 L21.4267205,11.4261401 C21.4267205,12.0447192 20.925263,12.5461767 20.3066839,12.5461767 L8.28009185,12.5461767 C7.66151275,12.5461767 7.16005531,12.0447192 7.16005531,11.4261401 L7.16005531,11.4261401 C7.16005531,10.807561 7.66151275,10.3061036 8.28009185,10.3061036 Z M8.28009185,18.7959806 L20.3066839,18.7959806 C20.925263,18.7959806 21.4267205,19.297438 21.4267205,19.9160171 L21.4267205,19.9160171 C21.4267205,20.5345962 20.925263,21.0360536 20.3066839,21.0360536 L8.28009185,21.0360536 C7.66151275,21.0360536 7.16005531,20.5345962 7.16005531,19.9160171 L7.16005531,19.9160171 C7.16005531,19.297438 7.66151275,18.7959806 8.28009185,18.7959806 Z M8.28009185,28.2266882 L20.3066839,28.2266882 C20.925263,28.2266882 21.4267205,28.7281457 21.4267205,29.3467248 L21.4267205,29.3467248 C21.4267205,29.9653039 20.925263,30.4667613 20.3066839,30.4667613 L8.28009185,30.4667613 C7.66151275,30.4667613 7.16005531,29.9653039 7.16005531,29.3467248 L7.16005531,29.3467248 C7.16005531,28.7281457 7.66151275,28.2266882 8.28009185,28.2266882 Z" id="Shape" fill="#999999" fill-rule="nonzero"></path>
                </g>
                <rect id="Rectangle" fill="#FBADB0" x="0" y="13" width="4" height="20"></rect>
            </g>
        </g>
    </g>
</svg>