<?xml version="1.0" encoding="UTF-8"?>
<svg width="22px" height="24px" viewBox="0 0 22 24" version="1.1" xmlns="http://www.w3.org/2000/svg" xmlns:xlink="http://www.w3.org/1999/xlink">
    <!-- Generator: Sketch 52.2 (67145) - http://www.bohemiancoding.com/sketch -->
    <title>up</title>
    <desc>Created with Sketch.</desc>
    <g id="Page-1" stroke="none" stroke-width="1" fill="none" fill-rule="evenodd">
        <g id="书城" transform="translate(-1587.000000, -4654.000000)" fill="#FFFFFF" fill-rule="nonzero">
            <g id="up" transform="translate(1587.000000, 4654.000000)">
                <path d="M9.95679668,4.97129521 L0.542496538,14.6422162 C-0.00012169243,15.1989858 -0.234606559,15.8631967 0.308719432,16.4205706 C0.851337663,16.9780672 1.49737631,16.7379306 2.03999454,16.1804363 L9.95161256,8.05379225 L9.95161256,22.6853583 C9.95161256,23.4114451 10.2598654,24 10.9666106,24 C11.6732387,24 12.0697319,23.4114451 12.0697319,22.6853583 L12.0697319,8.05379225 L19.9702969,16.1693188 C20.5127979,16.7264519 21.1430705,16.982781 21.6861598,16.4255275 C22.2288975,15.8674266 22.0102959,15.1883545 21.4675591,14.6308579 L12.0514896,4.95861507 C12.0514896,4.95861507 11.4875742,4.2994814 11.0593145,4.2994814 C10.5511674,4.29960225 9.95678151,4.97130465 9.95678151,4.97130465 L9.95679668,4.97129521 Z M1.43526339,2.17559785 L20.5637659,2.17559785 C21.4458152,2.17559785 21.9536107,1.89860332 21.9536107,1.10967288 C21.9536107,0.322194083 21.5125263,0 20.5637659,0 L1.43526339,0 C0.556860867,1.04823417e-17 0.0453013918,0.299595484 0.0453013918,1.08779892 C0.0453013918,1.87600236 0.570271558,2.17559785 1.43526339,2.17559785 Z" id="形状"></path>
            </g>
        </g>
    </g>
</svg>