<?xml version="1.0" encoding="UTF-8"?>
<svg width="66px" height="52px" viewBox="0 0 66 52" version="1.1" xmlns="http://www.w3.org/2000/svg" xmlns:xlink="http://www.w3.org/1999/xlink">
    <!-- Generator: Sketch 52.2 (67145) - http://www.bohemiancoding.com/sketch -->
    <title>logo</title>
    <desc>Created with Sketch.</desc>
    <g id="Page-1" stroke="none" stroke-width="1" fill="none" fill-rule="evenodd">
        <g id="书城" transform="translate(-927.000000, -40.000000)" fill="#FFFFFF">
            <g id="顶部">
                <g id="分组" transform="translate(365.000000, 40.000000)">
                    <g id="Group-2" transform="translate(280.000000, 0.000000)">
                        <g id="logo" transform="translate(282.000000, 0.000000)">
                            <path d="M14.0733449,24.3699192 L7.17263084,24.3699192 C7.99870405,10.7698831 19.0904853,3.38618023e-15 32.6521084,3.38618023e-15 C36.2823576,3.38618023e-15 39.735629,0.77172137 42.8623892,2.16287107 C43.0267338,2.22320944 43.185271,2.29592717 43.3369161,2.37991926 C43.3828907,2.40152697 43.4287914,2.42326981 43.4746178,2.44514729 L43.4495678,2.44514729 C44.4595073,3.05586405 45.1364091,4.17783369 45.1364091,5.46080457 C45.1364091,7.3964112 43.5957632,8.96552265 41.6952066,8.96552265 C41.2730038,8.96552265 40.8685572,8.88808289 40.4948142,8.74638875 L40.4948142,8.76582546 C38.1107495,7.63859666 35.4535764,7.00938392 32.6521084,7.00938392 C22.8930814,7.00938392 14.8851175,14.6448183 14.0733449,24.3699192 Z M14.6952219,31.1347989 C16.8943782,39.1284075 24.101042,44.9906161 32.6521084,44.9906161 C37.3701759,44.9906161 41.678975,43.2059603 44.9631965,40.2633244 L54,40.2633244 C49.43705,47.3327537 41.5797456,52 32.6521084,52 C20.2788715,52 9.96158421,43.0349172 7.62103225,31.1347989 L14.6952219,31.1347989 Z M3.68206979,24.9404292 L17.8469457,24.9404292 C18.2005195,24.9404292 18.4871679,25.2323715 18.4871679,25.5924929 C18.4871679,25.952562 18.2005195,26.2445043 17.8469457,26.2445043 L3.68206979,26.2445043 C3.32849591,26.2445043 3.04184759,25.952562 3.04184759,25.5924929 C3.04184759,25.2323715 3.32849591,24.9404292 3.68206979,24.9404292 Z M2.32157336,26.9780694 L19.0474027,26.9780694 C19.4009766,26.9780694 19.6876249,27.2699594 19.6876249,27.6300808 C19.6876249,27.9902021 19.4009766,28.2821444 19.0474027,28.2821444 L2.32157336,28.2821444 C1.96799948,28.2821444 1.68135115,27.9902021 1.68135115,27.6300808 C1.68135115,27.2699594 1.96799948,26.9780694 2.32157336,26.9780694 Z M0.640222205,29.0971587 L20.8071893,29.0971587 C21.1607632,29.0971587 21.4474115,29.389101 21.4474115,29.7492224 C21.4474115,30.1093437 21.1607632,30.4012338 20.8071893,30.4012338 L0.640222205,30.4012338 C0.286648322,30.4012338 -1.14935839e-13,30.1093437 -1.14935839e-13,29.7492224 C-1.14935839e-13,29.389101 0.286648322,29.0971587 0.640222205,29.0971587 Z" id="Combined-shape-5"></path>
                            <path d="M48.0111305,9.06091465 C48.4849569,9.02233415 52.5572349,8.75868337 52.9268594,11.0575998 L52.9268594,12.2532501 C52.9268594,12.2532501 53.0048241,12.4887289 53.6523005,12.4923727 L62.4379599,12.4923727 C62.4379599,12.4923727 64.6909177,12.5074148 64.6948344,15.1227957 C64.6948344,15.1227957 64.7441258,18.0628243 62.1155335,18.3112151 L60.0198723,18.3112151 C60.0198723,18.3112151 59.0185249,18.256503 59.0526667,19.3474378 L59.0526667,20.8619244 C59.0526667,20.8619244 58.9441074,21.1751176 60.1810855,21.1807607 L63.8888052,21.1807607 C63.8888052,21.1807607 65.7646503,20.8340078 65.9844664,24.0503251 C65.9844664,24.0503251 66.3330535,26.9601387 63.7275919,26.9996032 C61.5097737,27.0332003 60.9052703,24.9189546 58.7302403,24.927139 L47.9662361,24.927139 L47.9662361,24.9234018 L37.2606131,24.9234018 C35.0883174,24.9151988 34.4845899,27.0332564 32.2695429,26.9996032 C29.6673699,26.960064 30.0155136,24.0449996 30.0155136,24.0449996 C30.235071,20.822871 32.1085514,21.1702593 32.1085514,21.1702593 L35.8116153,21.1702593 C37.0470416,21.1645975 36.93863,20.8508437 36.93863,20.8508437 L36.93863,19.333629 C36.9727349,18.2407321 35.9726069,18.295519 35.9726069,18.295519 L33.8795691,18.295519 C31.2543023,18.0466985 31.3035198,15.1013631 31.3035198,15.1013631 C31.3074365,12.4812546 33.5575491,12.4661751 33.5575491,12.4661751 L42.3321975,12.4661751 C42.978861,12.4625314 43.0567148,12.2266228 43.0567148,12.2266228 L43.0567148,11.028805 C43.4487552,8.58309134 48.0111305,9.0324482 48.0111305,9.0324482 L48.0111305,9.06091465 Z M45.2302668,18.0559666 C44.7856464,18.0559666 44.4252352,18.4134826 44.4252352,18.8545056 L44.4252352,19.8127524 C44.4252352,20.6065825 45.0740049,21.2501226 45.8742699,21.2501226 L50.0603454,21.2501226 C50.8606104,21.2501226 51.5093431,20.6065825 51.5093431,19.8127524 L51.5093431,18.8545056 C51.5093431,18.4134826 51.148932,18.0559666 50.7043485,18.0559666 L45.2302668,18.0559666 Z" id="Combined-shape-9"></path>
                            <path d="M40.5892763,36.7777733 L40.5892763,36.9394016 C40.5892763,37.6534508 41.164921,38.2323143 41.8749842,38.2323143 L52.9642786,38.2323143 C53.6743689,38.2323143 54.2500136,37.6534508 54.2500136,36.9394016 L54.2500136,32.2525219 C54.2500136,31.8954973 53.9621912,31.6060574 53.6071461,31.6060574 L41.2321438,31.6060574 C40.8770987,31.6060574 40.5892763,31.8954973 40.5892763,32.2525219 L40.5892763,32.5757623 L50.4732044,32.5757623 C50.7394883,32.5757623 50.9553618,32.7928259 50.9553618,33.0606147 C50.9553618,33.3283872 50.7394883,33.5454509 50.4732044,33.5454509 L40.5892763,33.5454509 L40.5892763,34.1919153 L51.276782,34.1919153 C51.5430659,34.1919153 51.7589394,34.4089953 51.7589394,34.6767678 C51.7589394,34.9445403 51.5430659,35.1616202 51.276782,35.1616202 L40.5892763,35.1616202 L40.5892763,35.8080847 L52.0803596,35.8080847 C52.3466434,35.8080847 52.562517,36.0251483 52.562517,36.2929208 C52.562517,36.5607096 52.3466434,36.7777733 52.0803596,36.7777733 L40.5892763,36.7777733 Z M36.7321257,27 L58.2678743,27 C59.776789,27 61,28.4725051 61,29.9899043 L61,40.5757541 C61,41.8253646 59.9926626,43 58.7500045,43 L36.2499955,43 C35.0073374,43 34,41.8253646 34,40.5757541 L34,29.9899043 C34,28.4725051 35.223211,27 36.7321257,27 Z" id="Combined-shape-10"></path>
                        </g>
                    </g>
                </g>
            </g>
        </g>
    </g>
</svg>