<?xml version="1.0" encoding="UTF-8"?>
<svg width="25px" height="27px" viewBox="0 0 25 27" version="1.1" xmlns="http://www.w3.org/2000/svg" xmlns:xlink="http://www.w3.org/1999/xlink">
    <!-- Generator: Sketch 52.2 (67145) - http://www.bohemiancoding.com/sketch -->
    <title>icon1</title>
    <desc>Created with Sketch.</desc>
    <g id="Page-1" stroke="none" stroke-width="1" fill="none" fill-rule="evenodd">
        <g id="书城" transform="translate(-1456.000000, -312.000000)">
            <g id="顶部">
                <g id="icon1" transform="translate(1456.000000, 312.000000)">
                    <path d="M23.4440559,7.1704918 L18.7820513,7.1704918 C17.9118104,7.1704918 17.2280497,7.89442622 17.2280497,8.74426229 L17.2280497,4.02295081 C17.2280497,3.14163932 16.513209,2.44918033 15.6740482,2.44918033 L11.0120435,2.44918033 C10.1418026,2.44918033 9.45804196,3.17311474 9.45804196,4.02295081 L9.45804196,11.5770492 C9.45804196,10.6957377 8.74320125,10.0032787 7.90404041,10.0032787 L3.24203575,10.0032787 C2.37179487,10.0032787 1.68803421,10.7272131 1.68803418,11.5770492 L1.68803418,25.4262295 C1.68803418,26.307541 2.40287488,27 3.24203575,27 L7.90404041,27 C8.77428129,27 9.45804196,26.2760656 9.45804196,25.4262295 C9.45804196,26.307541 10.1728827,27 11.0120435,27 L15.6740482,27 C16.544289,27 17.2280497,26.2760656 17.2280497,25.4262295 C17.2280497,26.307541 17.9428904,27 18.7820513,27 L23.4440559,27 C24.3142968,27 24.9980575,26.2760656 24.9980575,25.4262295 L24.9980575,8.74426229 C24.9980575,7.89442622 24.3142968,7.1704918 23.4440559,7.1704918 Z" id="Path" fill="#3B99D9"></path>
                    <path d="M22.2319347,5.40786886 L17.5699301,5.40786886 C17.1658897,5.40786886 16.7929293,5.53377051 16.482129,5.72262294 L16.482129,2.73245902 C16.482129,1.59934426 15.5808081,0.686557387 14.461927,0.686557387 L9.79992229,0.686557387 C8.68104117,0.686557387 7.77972028,1.59934426 7.77972028,2.73245902 L7.77972028,8.55540983 C7.46891996,8.33508195 7.09595959,8.24065572 6.6919192,8.24065575 L2.02991454,8.24065575 C0.911033421,8.24065575 0.00971252914,9.15344262 0.0097125,10.2865574 L0.0097125,24.1357377 C0.0097125,25.2688524 0.911033392,26.1816393 2.02991454,26.1816394 L6.6919192,26.1816394 C7.31351981,26.1816394 7.87296037,25.8983607 8.24592075,25.4262295 C8.61888112,25.8668852 9.17832168,26.1816394 9.79992229,26.1816394 L14.461927,26.1816394 C15.0835276,26.1816394 15.6429681,25.8983607 16.0159285,25.4262295 C16.3888889,25.8668852 16.9483295,26.1816394 17.5699301,26.1816394 L22.2319347,26.1816394 C23.3508159,26.1816394 24.2521367,25.2688525 24.2521367,24.1357377 L24.2521367,7.45377049 C24.2521367,6.35213116 23.3508159,5.40786886 22.2319347,5.40786886 Z M6.6919192,25.2373771 L2.02991454,25.2373771 C1.43939394,25.2373771 0.942113462,24.7337705 0.942113432,24.1357377 L0.942113432,10.2865574 C0.942113432,9.68852458 1.43939394,9.18491804 2.02991454,9.18491804 L6.6919192,9.18491804 C7.2824398,9.18491804 7.77972028,9.68852461 7.77972028,10.2865574 L7.77972028,24.1357377 C7.77972028,24.7652459 7.31351981,25.237377 6.6919192,25.2373771 Z M14.461927,25.2373771 L9.79992229,25.2373771 C9.20940169,25.2373771 8.71212121,24.7337705 8.71212121,24.1357377 L8.71212121,2.73245902 C8.71212121,2.13442622 9.20940172,1.63081968 9.79992229,1.63081968 L14.461927,1.63081968 C15.0524476,1.63081968 15.549728,2.13442625 15.5497281,2.73245902 L15.5497281,24.1357377 C15.5497281,24.7652459 15.0835276,25.237377 14.461927,25.2373771 Z M23.3197358,24.1357377 C23.3197358,24.7337705 22.8224553,25.237377 22.2319347,25.2373771 L17.5699301,25.2373771 C16.9794095,25.2373771 16.482129,24.7337705 16.482129,24.1357377 L16.482129,7.45377049 C16.482129,6.8557377 16.9794095,6.35213116 17.5699301,6.35213116 L22.2319347,6.35213116 C22.8224553,6.35213116 23.3197358,6.85573772 23.3197358,7.45377049 L23.3197358,24.1357377 Z" id="Shape" fill="#3A3A3A" fill-rule="nonzero"></path>
                    <path d="M6.07031856,24.0340984 L2.34071483,24.0340984 C2.09207459,24.0340984 1.87451436,23.800765 1.87451436,23.5340984 C1.87451436,23.2674317 2.09207459,23.0340984 2.34071483,23.0340984 L6.07031856,23.0340984 C6.3189588,23.0340984 6.53651903,23.2674317 6.53651903,23.5340984 C6.53651903,23.800765 6.35003884,24.0340984 6.07031856,24.0340984 Z M13.9957265,24.0340984 L10.2661228,24.0340984 C10.0174825,24.0340984 9.79992229,23.800765 9.79992229,23.5340984 C9.79992229,23.2674317 10.0174825,23.0340984 10.2661228,23.0340984 L13.9957265,23.0340984 C14.2443667,23.0340984 14.461927,23.2674317 14.461927,23.5340984 C14.461927,23.800765 14.2754468,24.0340984 13.9957265,24.0340984 Z M21.7657343,24.0340984 L18.0361305,24.0340984 C17.7874903,24.0340984 17.5699301,23.800765 17.5699301,23.5340984 C17.5699301,23.2674317 17.7874903,23.0340984 18.0361305,23.0340984 L21.7657343,23.0340984 C22.0143745,23.0340984 22.2319347,23.2674317 22.2319347,23.5340984 C22.2319347,23.800765 22.0454545,24.0340984 21.7657343,24.0340984 Z" id="Shape" fill="#FFFFFF" fill-rule="nonzero"></path>
                    <path d="M1.93667445,6.41508197 C1.93667445,6.88443347 2.31237955,7.26491803 2.77583529,7.26491803 C3.23929102,7.26491803 3.61499612,6.88443347 3.61499612,6.41508197 C3.61499612,5.94573047 3.23929102,5.5652459 2.77583529,5.5652459 C2.31237955,5.5652459 1.93667445,5.94573047 1.93667445,6.41508197 Z" id="Path" fill="#71BCFF"></path>
                    <path d="M22.449495,4.08590165 C22.449495,4.17281859 22.51907,4.24327869 22.6048951,4.24327869 C22.6907202,4.24327869 22.7602953,4.17281859 22.7602953,4.08590165 C22.7602953,3.99898471 22.6907202,3.92852461 22.6048951,3.92852461 C22.51907,3.92852461 22.449495,3.99898471 22.449495,4.08590165 Z" id="Path" fill="#71BCFF"></path>
                    <path d="M23.2886558,2.3547541 C23.2886558,2.54592048 23.3893607,2.72256551 23.552836,2.8181487 C23.7163114,2.9137319 23.9177213,2.9137319 24.0811966,2.8181487 C24.2446719,2.72256551 24.3453769,2.54592048 24.3453768,2.3547541 C24.3453768,2.05923649 24.1088218,1.81967214 23.8170163,1.81967214 C23.5252109,1.81967214 23.2886558,2.05923649 23.2886558,2.3547541 Z" id="Path" fill="#71BCFF"></path>
                    <path d="M5.69735819,3.96 C5.66627815,3.92852458 5.63519814,3.92852458 5.63519814,3.96 L5.44871795,4.18032788 L5.26223776,3.96 C5.23115772,3.92852458 5.20007771,3.92852458 5.20007771,3.96 C5.16899767,3.99147542 5.16899767,4.02295081 5.20007771,4.05442623 L5.3865579,4.27475411 L5.20007771,4.49508196 C5.16899767,4.52655738 5.16899767,4.55803277 5.20007771,4.58950819 C5.23115775,4.62098361 5.26223776,4.62098361 5.26223776,4.58950819 L5.44871795,4.36918034 L5.63519814,4.58950819 C5.66627818,4.62098361 5.69735819,4.62098361 5.69735819,4.58950819 C5.72843823,4.55803277 5.72843823,4.52655738 5.69735819,4.49508196 L5.510878,4.27475411 L5.69735819,4.05442623 C5.72843823,4.02295081 5.72843823,3.99147542 5.69735819,3.96 Z M18.8442113,0.560655738 L19.2171717,0.18295082 C19.2482517,0.1514754 19.2482517,0.0885245902 19.2171717,0.0255737803 C19.1860917,-0.00590163934 19.1239316,-0.00590163934 19.0617716,0.0255737803 L18.6888112,0.403278698 L18.3158508,0.0255737803 C18.2847708,-0.00590163934 18.2226107,-0.00590163934 18.1604507,0.0255737803 C18.1293706,0.0570492 18.1293706,0.12000001 18.1604507,0.18295082 L18.533411,0.560655738 L18.1604507,0.938360656 C18.1293706,0.969836075 18.1293706,1.03278689 18.1604507,1.0957377 C18.1915307,1.12721311 18.2536908,1.12721311 18.3158508,1.0957377 L18.6888112,0.718032777 L19.0617716,1.0957377 C19.0928516,1.12721311 19.1550117,1.12721311 19.2171717,1.0957377 C19.2482517,1.06426228 19.2482517,1.00131147 19.2171717,0.938360656 L18.8442113,0.560655738 Z" id="Shape" fill="#71BCFF" fill-rule="nonzero"></path>
                </g>
            </g>
        </g>
    </g>
</svg>