<?xml version="1.0" encoding="UTF-8"?>
<svg width="48px" height="38px" viewBox="0 0 48 38" version="1.1" xmlns="http://www.w3.org/2000/svg" xmlns:xlink="http://www.w3.org/1999/xlink">
    <!-- Generator: Sketch 52.2 (67145) - http://www.bohemiancoding.com/sketch -->
    <title>logo</title>
    <desc>Created with Sketch.</desc>
    <g id="Page-1" stroke="none" stroke-width="1" fill="none" fill-rule="evenodd">
        <g id="书城（上滑状态）" transform="translate(-365.000000, -12.000000)" fill="#3B99D9">
            <g id="顶部">
                <g id="分组" transform="translate(365.000000, 11.000000)">
                    <g id="Group-2">
                        <g id="logo" transform="translate(0.000000, 1.000000)">
                            <path d="M10.1640825,17.8087871 L5.18023338,17.8087871 C5.77684181,7.87029919 13.7875727,2.74086309e-15 23.5820783,2.74086309e-15 C26.2039249,2.74086309e-15 28.6979543,0.563950232 30.95617,1.58055963 C31.0748633,1.62465305 31.1893624,1.67779293 31.2988839,1.73917176 C31.3320877,1.75496202 31.3652382,1.77085102 31.3983351,1.7868384 L31.3802434,1.7868384 C32.1096442,2.23313142 32.5985177,3.05303231 32.5985177,3.99058795 C32.5985177,5.40506973 31.485829,6.55172809 30.1132048,6.55172809 C29.8082805,6.55172809 29.5161802,6.4951375 29.2462547,6.39159178 L29.2462547,6.40579553 C27.5244302,5.58205141 25.6053608,5.12224209 23.5820783,5.12224209 C16.5338921,5.12224209 10.7503627,10.7019826 10.1640825,17.8087871 Z M10.6132158,22.752353 C12.2014953,28.5938362 17.4063081,32.8777579 23.5820783,32.8777579 C26.9895715,32.8777579 30.101482,31.5735864 32.4734197,29.4231986 L39,29.4231986 C35.7045361,34.58932 30.0298163,38 23.5820783,38 C14.6458517,38 7.19447748,31.4485934 5.50407884,22.752353 L10.6132158,22.752353 Z M2.65927263,18.2256983 L12.8894608,18.2256983 C13.1448197,18.2256983 13.3518435,18.4390407 13.3518435,18.7022063 C13.3518435,18.9653338 13.1448197,19.1786762 12.8894608,19.1786762 L2.65927263,19.1786762 C2.40391371,19.1786762 2.19688992,18.9653338 2.19688992,18.7022063 C2.19688992,18.4390407 2.40391371,18.2256983 2.65927263,18.2256983 Z M1.67669187,19.714743 L13.7564575,19.714743 C14.0118164,19.714743 14.2188402,19.9280473 14.2188402,20.1912129 C14.2188402,20.4543785 14.0118164,20.6677209 13.7564575,20.6677209 L1.67669187,20.6677209 C1.42133295,20.6677209 1.21430917,20.4543785 1.21430917,20.1912129 C1.21430917,19.9280473 1.42133295,19.714743 1.67669187,19.714743 Z M0.462382704,21.2633083 L15.0274145,21.2633083 C15.2827734,21.2633083 15.4897972,21.4766507 15.4897972,21.7398163 C15.4897972,22.002982 15.2827734,22.2162862 15.0274145,22.2162862 L0.462382704,22.2162862 C0.207023788,22.2162862 -8.39328607e-14,22.002982 -8.39328607e-14,21.7398163 C-8.39328607e-14,21.4766507 0.207023788,21.2633083 0.462382704,21.2633083 Z" id="Combined-shape-5"></path>
                            <path d="M34.5083478,7.04399391 C34.8637177,7.01613022 37.9179262,6.82571576 38.1951445,8.48604433 L38.1951445,9.34956951 C38.1951445,9.34956951 38.253618,9.51963756 38.7392253,9.52226915 L45.32847,9.52226915 C45.32847,9.52226915 47.0181883,9.53313288 47.0211258,11.4220191 C47.0211258,11.4220191 47.0580944,13.5453731 45.0866501,13.7247665 L43.5149042,13.7247665 C43.5149042,13.7247665 42.7638936,13.6852522 42.7895001,14.4731495 L42.7895001,15.5669454 C42.7895001,15.5669454 42.7080805,15.7931405 43.6358141,15.7972161 L46.4166039,15.7972161 C46.4166039,15.7972161 47.8234877,15.5467834 47.9883498,17.8696792 C47.9883498,17.8696792 48.2497901,19.9712113 46.2956939,19.9997134 C44.6323303,20.023978 44.1789527,18.4970228 42.5476802,18.5029337 L34.4746771,18.5029337 L34.4746771,18.5002347 L26.4454598,18.5002347 C24.816238,18.4943102 24.3634424,20.0240185 22.7021572,19.9997134 C20.7505274,19.9711573 21.0116352,17.8658331 21.0116352,17.8658331 C21.1763033,15.5387402 22.5814135,15.7896317 22.5814135,15.7896317 L25.3587115,15.7896317 C26.2852812,15.7855426 26.2039725,15.5589427 26.2039725,15.5589427 L26.2039725,14.4631765 C26.2295512,13.6738621 25.4794552,13.7134304 25.4794552,13.7134304 L23.9096768,13.7134304 C21.9407267,13.5337267 21.9776399,11.40654 21.9776399,11.40654 C21.9805774,9.51423943 23.6681618,9.50334871 23.6681618,9.50334871 L30.2491481,9.50334871 C30.7341457,9.50071712 30.7925361,9.33033868 30.7925361,9.33033868 L30.7925361,8.46524804 C31.0865664,6.6988993 34.5083478,7.02343481 34.5083478,7.02343481 L34.5083478,7.04399391 Z M32.4227001,13.5404204 C32.0892348,13.5404204 31.8189264,13.7986264 31.8189264,14.117143 L31.8189264,14.8092101 C31.8189264,15.3825318 32.3055037,15.8473107 32.9057024,15.8473107 L36.0452591,15.8473107 C36.6454578,15.8473107 37.1320073,15.3825318 37.1320073,14.8092101 L37.1320073,14.117143 C37.1320073,13.7986264 36.861699,13.5404204 36.5282614,13.5404204 L32.4227001,13.5404204 Z" id="Combined-shape-9"></path>
                            <path d="M29.8809454,26.7222191 L29.8809454,26.8333386 C29.8809454,27.3242474 30.3073489,27.7222161 30.8333216,27.7222161 L39.0476138,27.7222161 C39.5736066,27.7222161 40.0000101,27.3242474 40.0000101,26.8333386 L40.0000101,23.6111088 C40.0000101,23.3656544 39.7868083,23.1666645 39.5238119,23.1666645 L30.3571436,23.1666645 C30.0941472,23.1666645 29.8809454,23.3656544 29.8809454,23.6111088 L29.8809454,23.8333365 L37.2023736,23.8333365 C37.399621,23.8333365 37.5595273,23.9825678 37.5595273,24.1666726 C37.5595273,24.3507662 37.399621,24.4999975 37.2023736,24.4999975 L29.8809454,24.4999975 L29.8809454,24.9444418 L37.7976163,24.9444418 C37.9948636,24.9444418 38.1547699,25.0936842 38.1547699,25.2777778 C38.1547699,25.4618714 37.9948636,25.6111139 37.7976163,25.6111139 L29.8809454,25.6111139 L29.8809454,26.0555582 L38.3928589,26.0555582 C38.5901062,26.0555582 38.7500126,26.2047895 38.7500126,26.3888831 C38.7500126,26.5729878 38.5901062,26.7222191 38.3928589,26.7222191 L29.8809454,26.7222191 Z M27.0237968,20 L42.9762032,20 C44.0939178,20 45,21.0123473 45,22.0555592 L45,29.333331 C45,30.1924381 44.2538241,31 43.3333367,31 L26.6666633,31 C25.7461759,31 25,30.1924381 25,29.333331 L25,22.0555592 C25,21.0123473 25.9060822,20 27.0237968,20 Z" id="Combined-shape-10"></path>
                        </g>
                    </g>
                </g>
            </g>
        </g>
    </g>
</svg>