<?xml version="1.0" encoding="UTF-8"?>
<svg width="14px" height="12px" viewBox="0 0 14 12" version="1.1" xmlns="http://www.w3.org/2000/svg" xmlns:xlink="http://www.w3.org/1999/xlink">
    <!-- Generator: Sketch 52.2 (67145) - http://www.bohemiancoding.com/sketch -->
    <title>icon6</title>
    <desc>Created with Sketch.</desc>
    <g id="Page-1" stroke="none" stroke-width="1" fill="none" fill-rule="evenodd">
        <g id="书籍详情页1" transform="translate(-1177.000000, -1970.000000)" fill="#3A3A3A" fill-rule="nonzero">
            <g id="最新评论" transform="translate(365.000000, 1694.000000)">
                <g id="01" transform="translate(18.000000, 200.000000)">
                    <g id="回复" transform="translate(794.000000, 74.000000)">
                        <g id="icon6" transform="translate(0.000000, 2.000000)">
                            <path d="M11.9543016,3.54315601e-06 L2.04728889,3.54315601e-06 C0.918190879,3.54315601e-06 0,0.967822522 0,2.15922122 L0,7.7602751 C0,8.95133425 0.918189759,9.91949277 2.04728889,9.91949277 L4.51863218,9.91949277 C4.7875259,10.1935294 4.70150535,10.1066402 4.77987925,10.1851748 L6.26261354,11.6880387 C6.66892397,12.1039871 7.31737885,12.1039871 7.7236859,11.6880387 L9.20642019,10.1851748 L9.46129636,9.91782088 L11.9527111,9.91782088 C13.0821339,9.91782088 14,8.94966706 14,7.75860321 L14,2.15921767 C14,0.967829552 13.0821295,-4.74287276e-13 11.9543016,-4.74287276e-13 L11.9543016,3.54315601e-06 Z M12.9984258,7.78084876 C12.9984258,8.43068657 12.5037006,8.95918512 11.894662,8.95918512 L9.00063338,8.95918512 L8.04991636,9.94062753 L7.79168971,10.208051 L7.04031218,10.9792316 C7.01373259,11.0069228 6.9711588,11.0069228 6.9445792,10.9792316 L6.17147244,10.1866565 L4.97166464,8.95918512 L2.10376384,8.95918512 C1.49472518,8.95918512 1,8.43069009 1,7.78084876 L1,2.17833635 C1,1.52849855 1.49472518,1 2.10376384,1 L11.8962362,1 C12.5036994,1 13,1.52849502 13,2.17833635 L13,7.78084876 L12.9984254,7.78084876 L12.9984258,7.78084876 Z M10.0000083,4.00000031 C9.44644593,4.00184519 8.99896785,4.44932063 9.00000179,5.00000072 L9.0000018,4.9999826 C8.99957456,5.55040914 9.44668505,5.99753384 9.99998995,6 C10.5535524,5.99815511 11.0010304,5.55067968 10.9999965,4.99999959 L10.9999965,4.9999939 C11.0014399,4.44914783 10.5537219,4.00143502 9.99998998,4.00000002 C9.9999877,4.00000001 9.99998542,4.00000001 9.99998314,4 L10.0000083,4.00000031 Z M6.99982229,4 C6.44621719,4.00184493 5.99876214,4.44938042 6.00000257,5.00000036 L6.00000259,4.99998396 C5.99957538,5.55026671 6.44654439,5.99732996 6.99980526,6 C7.55347086,5.99815511 8.00103234,5.5506797 7.99999821,4.99999964 L7.99999823,4.99996136 C8.00018927,4.44961849 7.55308849,4.00263889 6.99976587,4.00000021 L6.99982229,4 Z M3.99982229,4 C3.44621719,4.00184493 2.99876214,4.44938042 3.00000257,5.00000036 L3.00000259,4.99998396 C2.99957538,5.55026671 3.44654439,5.99732996 3.99980526,6 C4.55347086,5.99815511 5.00103234,5.5506797 4.99999821,4.99999964 L4.99999825,4.99996665 C5.00060257,4.44945519 4.55326591,4.00223511 3.99977114,4.00000028 L3.99982229,4 Z" id="形状"></path>
                        </g>
                    </g>
                </g>
            </g>
        </g>
    </g>
</svg>