<?xml version="1.0" encoding="UTF-8"?>
<svg width="18px" height="18px" viewBox="0 0 18 18" version="1.1" xmlns="http://www.w3.org/2000/svg" xmlns:xlink="http://www.w3.org/1999/xlink">
    <!-- Generator: Sketch 52.2 (67145) - http://www.bohemiancoding.com/sketch -->
    <title>icon</title>
    <desc>Created with Sketch.</desc>
    <g id="Page-1" stroke="none" stroke-width="1" fill="none" fill-rule="evenodd">
        <g id="书籍详情页1" transform="translate(-475.000000, -2552.000000)" fill="#1DD2AF" fill-rule="nonzero">
            <g id="最新评论" transform="translate(365.000000, 1694.000000)">
                <g id="04" transform="translate(18.000000, 680.000000)">
                    <g id="回复框" transform="translate(72.000000, 152.000000)">
                        <g id="icon" transform="translate(20.000000, 26.000000)">
                            <path d="M4.39102073,14.6355639 L5.31035774,14.2593916 L4.46660676,13.8832193 L4.39102073,14.6355639 Z M4.55801312,8.57637717 L4.52813027,13.2644686 L4.89024007,13.6423987 L6.72715627,10.99513 C6.53203885,10.7718875 6.41250746,10.4800903 6.41250746,10.1601681 C6.41250746,9.46055788 6.98028156,8.89278379 7.67813393,8.89278379 C8.37774412,8.89278379 8.94376041,9.45880007 8.94376041,10.1601681 C8.94376041,10.8580204 8.37598631,11.4257945 7.67813393,11.4257945 C7.52520407,11.4257945 7.3722742,11.3976695 7.22989123,11.3431773 L5.4017641,13.9728678 L5.83945992,14.2295087 L10.1953244,12.5560693 C10.2568479,10.1742306 11.8089981,8.36543942 11.8089981,8.36543942 L8.08418909,5.62149092 C6.81856262,7.67286049 4.55801312,8.57637717 4.55801312,8.57637717 Z M7.64825109,4.73203676 L12.6509913,8.2300877 L13.5720861,6.9486409 L8.52188492,3.33105856 L7.64825109,4.73203676 Z M15.2965022,2.66836248 C13.610758,0.980860516 11.3677867,0.0527344364 8.98243233,0.0527344364 C6.59707799,0.0527344364 4.35410663,0.980860516 2.66660467,2.66836248 C0.979102702,4.35586444 0.0509766218,6.59707799 0.0509766218,8.98419014 C0.0509766218,11.3695445 0.979102702,13.6125158 2.66660467,15.29826 C4.35410663,16.985762 6.59532017,17.913888 8.98243233,17.913888 C11.3677867,17.913888 13.610758,16.985762 15.2965022,15.29826 C16.9822463,13.610758 17.9121302,11.3695445 17.9121302,8.98419014 C17.9121302,6.5988358 16.9840041,4.35586444 15.2965022,2.66836248 Z M17.0033401,8.98419014 C17.0033401,11.1269661 16.1683782,13.1414215 14.6548999,14.6566577 C13.1379059,16.170136 11.1252083,17.0050979 8.98243233,17.0050979 C6.8396564,17.0050979 4.82520093,16.170136 3.30996479,14.6548999 C1.79472865,13.1396637 0.959766742,11.1252083 0.959766742,8.98419014 C0.959766742,6.84141421 1.79472865,4.82695874 3.30996479,3.3117226 C4.82520093,1.79648647 6.8396564,0.961524556 8.98243233,0.961524556 C11.1252083,0.961524556 13.1396637,1.79648647 14.6548999,3.3117226 C16.1683782,4.82695874 17.0033401,6.84141421 17.0033401,8.98419014 Z" id="形状"></path>
                        </g>
                    </g>
                </g>
            </g>
        </g>
    </g>
</svg>