<?xml version="1.0" encoding="UTF-8"?>
<svg width="14px" height="13px" viewBox="0 0 14 13" version="1.1" xmlns="http://www.w3.org/2000/svg" xmlns:xlink="http://www.w3.org/1999/xlink">
    <!-- Generator: Sketch 52.2 (67145) - http://www.bohemiancoding.com/sketch -->
    <title>icon5</title>
    <desc>Created with Sketch.</desc>
    <g id="Page-1" stroke="none" stroke-width="1" fill="none" fill-rule="evenodd">
        <g id="书籍详情页1" transform="translate(-1124.000000, -1969.000000)" fill="#3A3A3A" fill-rule="nonzero">
            <g id="最新评论" transform="translate(365.000000, 1694.000000)">
                <g id="01" transform="translate(18.000000, 200.000000)">
                    <g id="点赞" transform="translate(741.000000, 73.000000)">
                        <g id="icon5" transform="translate(0.000000, 2.000000)">
                            <path d="M9.91541177,1.1080497 C10.7599362,1.1080497 11.5475657,1.45404414 12.1324076,2.08197233 C13.2725315,3.30613203 13.2124581,5.32304272 11.9982754,6.57723087 L7.00041979,11.7424574 L2.00192849,6.57756451 C0.788063658,5.32304272 0.727672378,3.30646567 1.86779626,2.08230598 C2.45295603,1.45404413 3.24026767,1.10838334 4.08479212,1.10838334 C4.90706713,1.10838334 5.67943989,1.43869626 6.25951408,2.03759697 L7.00010193,2.80298871 L7.7406898,2.03759697 C8.32024375,1.43849069 9.10201876,1.10433449 9.91541177,1.1080497 Z M4.08510996,6.66765468e-16 C3.00474166,6.66765468e-16 1.92500906,0.435746127 1.11290519,1.30757204 C-0.451864788,2.98816413 -0.333942853,5.71875092 1.26134062,7.36731267 L6.50648265,12.7871137 C6.78001365,13.0709621 7.22019023,13.0709621 7.49372123,12.7871137 L12.7385454,7.36731267 C14.3341467,5.71875092 14.4517508,2.98783049 12.8869808,1.30757204 C12.0751948,0.435746127 10.9948265,0 9.91477606,0 C8.85951781,0 7.80489527,0.416060822 6.99978409,1.24784881 C6.19562646,0.415727178 5.14005037,0 4.08510996,6.66765468e-16 Z" id="Shape"></path>
                        </g>
                    </g>
                </g>
            </g>
        </g>
    </g>
</svg>