<?xml version="1.0" encoding="UTF-8"?>
<svg width="20px" height="20px" viewBox="0 0 20 20" version="1.1" xmlns="http://www.w3.org/2000/svg" xmlns:xlink="http://www.w3.org/1999/xlink">
    <!-- Generator: Sketch 52.2 (67145) - http://www.bohemiancoding.com/sketch -->
    <title>home</title>
    <desc>Created with Sketch.</desc>
    <g id="Page-1" stroke="none" stroke-width="1" fill="none" fill-rule="evenodd">
        <g id="书籍详情页2" transform="translate(-365.000000, -370.000000)" fill="#3B99D9" fill-rule="nonzero">
            <g id="Group-3" transform="translate(0.000000, 298.000000)">
                <g id="Group-7" transform="translate(365.000000, 72.000000)">
                    <g id="home">
                        <path d="M10,0 C15.5411721,0 20,4.4705848 20,10 C20,15.5294152 15.5294152,20 10,20 C4.4705848,20 0,15.5294152 0,10 C0,4.47060565 4.4705848,0 10,0 Z M6.54117627,15.0117569 L13.5058722,15.0117569 C13.9411696,15.0117569 14.305863,14.6470426 14.305863,14.2117661 L14.305863,10.705873 C14.305863,10.2705756 14.6352857,9.90588221 15.0705623,9.90588221 C15.1058539,9.90588221 15.1411454,9.87059064 15.1411454,9.87059064 C15.1411454,9.83529907 15.1411454,9.8000075 15.1058539,9.76471594 L10.5764428,5.23530491 C10.2705548,4.92941687 9.74113959,4.92941687 9.4470293,5.23530491 L4.90584051,9.77649369 C4.87054895,9.81178526 4.87054895,9.84707682 4.87054895,9.88236839 C4.87054895,9.91765996 4.90584051,9.91765996 4.94113208,9.91765996 C5.37642949,9.91765996 5.70583134,10.2823742 5.70583134,10.7176508 L5.70583134,14.2235438 C5.74112291,14.6353066 6.10583718,15.0117778 6.54113458,15.0117778 L6.54117627,15.0117569 Z M15.1058747,10.705873 L15.2705756,10.705873 C15.5999983,10.705873 15.870574,10.5058805 15.9999833,10.1999925 C16.1293927,9.89410445 16.0705665,9.5647026 15.8352824,9.32939769 L11.1293927,4.62350798 C10.4941028,3.98821808 9.49409862,3.98821808 8.85880872,4.62350798 L4.15291901,9.32939769 C3.9176141,9.56468175 3.84703096,9.89410445 3.98821808,10.1999925 C4.11762744,10.5058805 4.38822391,10.705873 4.71762577,10.705873 L4.8823267,10.705873 L4.8823267,14.2117661 C4.8823267,15.0823609 5.61173439,15.8117686 6.4823292,15.8117686 L13.4470251,15.8117686 C14.3176199,15.8117686 15.0470276,15.0823609 15.0470276,14.2117661 L15.0470276,10.705873 L15.1058539,10.705873 L15.1058747,10.705873 Z" id="Shape"></path>
                    </g>
                </g>
            </g>
        </g>
    </g>
</svg>